<svg width="635" height="635" viewBox="0 0 635 635" fill="none" xmlns="http://www.w3.org/2000/svg">
<circle cx="317.5" cy="317.5" r="317.5" fill="#9E6A1D"/>
<circle cx="317" cy="317" r="237" fill="#F1ECA6"/>
<circle cx="317.5" cy="317.5" r="220.5" stroke="#F6EAEE" stroke-width="3"/>
<circle cx="317" cy="317" r="204" fill="#EECE93"/>
<path d="M88.8882 335.073H545.63V491.073H88.8882V335.073Z" fill="#B4D3CA"/>
<path d="M97 335V491L79.1958 490.841C62.4103 490.69 52.2758 472.182 61.0757 457.887C78.0722 430.278 78.1432 395.335 61.1467 367.726C52.3403 353.421 62.632 335 79.4305 335H97Z" fill="#B4D3CA"/>
<path d="M538 335V491L555.804 490.841C572.59 490.69 582.724 472.182 573.924 457.887C556.928 430.278 556.857 395.335 573.853 367.726C582.66 353.421 572.368 335 555.569 335H538Z" fill="#B4D3CA"/>
<path d="M135.325 432.155V448.015H158.14V453.605H135.325V472H128.825V426.5H160.935V432.155H135.325ZM170.085 426.5H176.585V472H170.085V426.5ZM229.337 426.5V472H224.007L196.707 438.07V472H190.207V426.5H195.537L222.837 460.43V426.5H229.337ZM263.496 472.52C258.903 472.52 254.764 471.523 251.081 469.53C247.398 467.493 244.494 464.698 242.371 461.145C240.291 457.592 239.251 453.627 239.251 449.25C239.251 444.873 240.291 440.908 242.371 437.355C244.494 433.802 247.398 431.028 251.081 429.035C254.764 426.998 258.903 425.98 263.496 425.98C268.046 425.98 272.163 426.998 275.846 429.035C279.529 431.028 282.411 433.802 284.491 437.355C286.571 440.865 287.611 444.83 287.611 449.25C287.611 453.67 286.571 457.657 284.491 461.21C282.411 464.72 279.529 467.493 275.846 469.53C272.163 471.523 268.046 472.52 263.496 472.52ZM263.496 466.735C266.833 466.735 269.823 465.977 272.466 464.46C275.153 462.943 277.254 460.863 278.771 458.22C280.331 455.533 281.111 452.543 281.111 449.25C281.111 445.957 280.331 442.988 278.771 440.345C277.254 437.658 275.153 435.557 272.466 434.04C269.823 432.523 266.833 431.765 263.496 431.765C260.159 431.765 257.126 432.523 254.396 434.04C251.709 435.557 249.586 437.658 248.026 440.345C246.509 442.988 245.751 445.957 245.751 449.25C245.751 452.543 246.509 455.533 248.026 458.22C249.586 460.863 251.709 462.943 254.396 464.46C257.126 465.977 260.159 466.735 263.496 466.735ZM317.891 472.52C313.341 472.52 309.224 471.523 305.541 469.53C301.901 467.493 299.041 464.72 296.961 461.21C294.881 457.657 293.841 453.67 293.841 449.25C293.841 444.83 294.881 440.865 296.961 437.355C299.041 433.802 301.922 431.028 305.606 429.035C309.289 426.998 313.406 425.98 317.956 425.98C321.509 425.98 324.759 426.587 327.706 427.8C330.652 428.97 333.166 430.725 335.246 433.065L331.021 437.16C327.597 433.563 323.329 431.765 318.216 431.765C314.836 431.765 311.781 432.523 309.051 434.04C306.321 435.557 304.176 437.658 302.616 440.345C301.099 442.988 300.341 445.957 300.341 449.25C300.341 452.543 301.099 455.533 302.616 458.22C304.176 460.863 306.321 462.943 309.051 464.46C311.781 465.977 314.836 466.735 318.216 466.735C323.286 466.735 327.554 464.915 331.021 461.275L335.246 465.37C333.166 467.71 330.631 469.487 327.641 470.7C324.694 471.913 321.444 472.52 317.891 472.52ZM363.911 472.52C359.361 472.52 355.245 471.523 351.561 469.53C347.921 467.493 345.061 464.72 342.981 461.21C340.901 457.657 339.861 453.67 339.861 449.25C339.861 444.83 340.901 440.865 342.981 437.355C345.061 433.802 347.943 431.028 351.626 429.035C355.31 426.998 359.426 425.98 363.976 425.98C367.53 425.98 370.78 426.587 373.726 427.8C376.673 428.97 379.186 430.725 381.266 433.065L377.041 437.16C373.618 433.563 369.35 431.765 364.236 431.765C360.856 431.765 357.801 432.523 355.071 434.04C352.341 435.557 350.196 437.658 348.636 440.345C347.12 442.988 346.361 445.957 346.361 449.25C346.361 452.543 347.12 455.533 348.636 458.22C350.196 460.863 352.341 462.943 355.071 464.46C357.801 465.977 360.856 466.735 364.236 466.735C369.306 466.735 373.575 464.915 377.041 461.275L381.266 465.37C379.186 467.71 376.651 469.487 373.661 470.7C370.715 471.913 367.465 472.52 363.911 472.52ZM429.669 426.5V472H423.169V451.72H397.039V472H390.539V426.5H397.039V446.065H423.169V426.5H429.669ZM443.288 426.5H449.788V472H443.288V426.5ZM483.95 472.52C479.357 472.52 475.218 471.523 471.535 469.53C467.852 467.493 464.948 464.698 462.825 461.145C460.745 457.592 459.705 453.627 459.705 449.25C459.705 444.873 460.745 440.908 462.825 437.355C464.948 433.802 467.852 431.028 471.535 429.035C475.218 426.998 479.357 425.98 483.95 425.98C488.5 425.98 492.617 426.998 496.3 429.035C499.983 431.028 502.865 433.802 504.945 437.355C507.025 440.865 508.065 444.83 508.065 449.25C508.065 453.67 507.025 457.657 504.945 461.21C502.865 464.72 499.983 467.493 496.3 469.53C492.617 471.523 488.5 472.52 483.95 472.52ZM483.95 466.735C487.287 466.735 490.277 465.977 492.92 464.46C495.607 462.943 497.708 460.863 499.225 458.22C500.785 455.533 501.565 452.543 501.565 449.25C501.565 445.957 500.785 442.988 499.225 440.345C497.708 437.658 495.607 435.557 492.92 434.04C490.277 432.523 487.287 431.765 483.95 431.765C480.613 431.765 477.58 432.523 474.85 434.04C472.163 435.557 470.04 437.658 468.48 440.345C466.963 442.988 466.205 445.957 466.205 449.25C466.205 452.543 466.963 455.533 468.48 458.22C470.04 460.863 472.163 462.943 474.85 464.46C477.58 465.977 480.613 466.735 483.95 466.735Z" fill="#9E6A1D"/>
<path d="M270.904 389.896H272.472V398.28C271.491 399.219 270.296 399.933 268.888 400.424C267.501 400.915 266.029 401.16 264.472 401.16C262.253 401.16 260.248 400.669 258.456 399.688C256.685 398.707 255.288 397.352 254.264 395.624C253.261 393.896 252.76 391.955 252.76 389.8C252.76 387.645 253.261 385.704 254.264 383.976C255.288 382.248 256.685 380.893 258.456 379.912C260.248 378.931 262.264 378.44 264.504 378.44C266.147 378.44 267.651 378.707 269.016 379.24C270.403 379.752 271.587 380.509 272.568 381.512L271.544 382.6C270.605 381.661 269.549 380.989 268.376 380.584C267.224 380.157 265.944 379.944 264.536 379.944C262.616 379.944 260.877 380.371 259.32 381.224C257.784 382.077 256.579 383.261 255.704 384.776C254.829 386.269 254.392 387.944 254.392 389.8C254.392 391.635 254.829 393.309 255.704 394.824C256.6 396.317 257.816 397.501 259.352 398.376C260.888 399.229 262.616 399.656 264.536 399.656C267.096 399.656 269.219 398.973 270.904 397.608V389.896ZM295.11 399.528V401H279.654V378.6H294.63V380.072H281.286V388.904H293.222V390.344H281.286V399.528H295.11ZM301.06 378.6H302.692V399.528H315.588V401H301.06V378.6ZM333.666 394.696H320.674L317.826 401H316.066L326.37 378.6H328.002L338.306 401H336.546L333.666 394.696ZM333.058 393.32L327.17 380.392L321.314 393.32H333.058ZM345.536 380.072H337.472V378.6H355.232V380.072H347.168V401H345.536V380.072ZM368.471 401.16C366.273 401.16 364.289 400.669 362.519 399.688C360.748 398.685 359.351 397.32 358.327 395.592C357.324 393.864 356.823 391.933 356.823 389.8C356.823 387.667 357.324 385.736 358.327 384.008C359.351 382.28 360.748 380.925 362.519 379.944C364.289 378.941 366.273 378.44 368.471 378.44C370.668 378.44 372.652 378.931 374.423 379.912C376.193 380.893 377.58 382.248 378.583 383.976C379.607 385.704 380.119 387.645 380.119 389.8C380.119 391.955 379.607 393.896 378.583 395.624C377.58 397.352 376.193 398.707 374.423 399.688C372.652 400.669 370.668 401.16 368.471 401.16ZM368.471 399.656C370.348 399.656 372.044 399.229 373.559 398.376C375.073 397.523 376.268 396.349 377.143 394.856C378.017 393.341 378.455 391.656 378.455 389.8C378.455 387.944 378.017 386.269 377.143 384.776C376.268 383.261 375.073 382.077 373.559 381.224C372.044 380.371 370.348 379.944 368.471 379.944C366.593 379.944 364.887 380.371 363.351 381.224C361.836 382.077 360.641 383.261 359.766 384.776C358.892 386.269 358.455 387.944 358.455 389.8C358.455 391.656 358.892 393.341 359.766 394.856C360.641 396.349 361.836 397.523 363.351 398.376C364.887 399.229 366.593 399.656 368.471 399.656Z" fill="#9E6A1D"/>
<circle cx="409" cy="384" r="8" fill="#F9F3A9"/>
<circle cx="225" cy="384" r="8" fill="#F9F3A9"/>
<path d="M232.227 203.033C229.022 188.092 240.412 174 255.693 174H378.307C393.588 174 404.978 188.092 401.773 203.033L372.068 341.533C369.695 352.597 359.917 360.5 348.602 360.5H285.398C274.083 360.5 264.305 352.597 261.932 341.533L232.227 203.033Z" fill="#E3B16F"/>
<path d="M242 225L385 281M392 225L249 281M242 185L393 244M392 185L241 244M255 305L368 349M379 305L266 349M264 345L300 359M370 345L334 359M246 264L377 317M388 264L257 317" stroke="#D89C43" stroke-width="3"/>
<path d="M217 189C217 180.716 223.716 174 232 174H402C410.284 174 417 180.716 417 189V215C417 223.284 410.284 230 402 230H232C223.716 230 217 223.284 217 215V189Z" fill="#D89C43"/>
<circle cx="185" cy="253" r="8" fill="#F1ECA6"/>
<circle cx="449" cy="253" r="8" fill="#F1ECA6"/>
<path d="M422 134C422 145.528 420.142 156.623 416.709 167C370.248 167 217.291 167 217.291 167C213.858 156.623 212 145.528 212 134C212 76.0101 259.01 29 317 29C374.99 29 422 76.0101 422 134Z" fill="#B4D3CA"/>
<path d="M427.889 170.292C427.902 156.282 416.579 144.9 402.568 144.84L232.57 144.112C218.115 144.05 206.375 155.772 206.415 170.227L206.421 172.639C206.487 196.576 236.747 206.954 251.49 188.097C258.496 179.135 271.364 177.378 280.516 184.134L291.95 192.575C306.85 203.575 327.14 203.727 342.203 192.951L355.514 183.428C364.517 176.988 377.005 178.853 383.733 187.642C398.028 206.316 427.866 196.222 427.887 172.704L427.889 170.292Z" fill="#B4D3CA"/>
<path d="M148.508 294.09C147.584 294.09 146.702 293.934 145.862 293.622C145.034 293.298 144.386 292.884 143.918 292.38L144.332 291.696C144.776 292.164 145.37 292.548 146.114 292.848C146.87 293.136 147.662 293.28 148.49 293.28C149.69 293.28 150.596 293.052 151.208 292.596C151.82 292.14 152.126 291.546 152.126 290.814C152.126 290.25 151.964 289.8 151.64 289.464C151.316 289.128 150.914 288.87 150.434 288.69C149.954 288.51 149.306 288.324 148.49 288.132C147.566 287.904 146.822 287.682 146.258 287.466C145.706 287.25 145.232 286.92 144.836 286.476C144.452 286.02 144.26 285.414 144.26 284.658C144.26 284.046 144.422 283.488 144.746 282.984C145.07 282.468 145.562 282.06 146.222 281.76C146.894 281.46 147.728 281.31 148.724 281.31C149.42 281.31 150.104 281.412 150.776 281.616C151.448 281.82 152.03 282.096 152.522 282.444L152.18 283.182C151.676 282.834 151.118 282.57 150.506 282.39C149.906 282.21 149.312 282.12 148.724 282.12C147.56 282.12 146.678 282.354 146.078 282.822C145.478 283.29 145.178 283.896 145.178 284.64C145.178 285.204 145.34 285.654 145.664 285.99C145.988 286.326 146.39 286.584 146.87 286.764C147.35 286.944 148.004 287.136 148.832 287.34C149.756 287.568 150.494 287.79 151.046 288.006C151.598 288.222 152.066 288.552 152.45 288.996C152.846 289.428 153.044 290.016 153.044 290.76C153.044 291.372 152.876 291.93 152.54 292.434C152.216 292.938 151.712 293.34 151.028 293.64C150.344 293.94 149.504 294.09 148.508 294.09ZM159.549 294.072C158.661 294.072 157.857 293.868 157.137 293.46C156.429 293.052 155.871 292.488 155.463 291.768C155.055 291.036 154.851 290.214 154.851 289.302C154.851 288.39 155.055 287.574 155.463 286.854C155.871 286.122 156.429 285.552 157.137 285.144C157.857 284.736 158.661 284.532 159.549 284.532C160.437 284.532 161.235 284.736 161.943 285.144C162.663 285.552 163.227 286.122 163.635 286.854C164.043 287.574 164.247 288.39 164.247 289.302C164.247 290.214 164.043 291.036 163.635 291.768C163.227 292.488 162.663 293.052 161.943 293.46C161.235 293.868 160.437 294.072 159.549 294.072ZM159.549 293.262C160.269 293.262 160.911 293.094 161.475 292.758C162.051 292.422 162.501 291.954 162.825 291.354C163.161 290.754 163.329 290.07 163.329 289.302C163.329 288.534 163.161 287.85 162.825 287.25C162.501 286.65 162.051 286.182 161.475 285.846C160.911 285.51 160.269 285.342 159.549 285.342C158.829 285.342 158.181 285.51 157.605 285.846C157.041 286.182 156.591 286.65 156.255 287.25C155.931 287.85 155.769 288.534 155.769 289.302C155.769 290.07 155.931 290.754 156.255 291.354C156.591 291.954 157.041 292.422 157.605 292.758C158.181 293.094 158.829 293.262 159.549 293.262ZM167.903 286.656C168.191 285.972 168.641 285.45 169.253 285.09C169.865 284.718 170.609 284.532 171.485 284.532V285.414L171.269 285.396C170.225 285.396 169.409 285.726 168.821 286.386C168.233 287.034 167.939 287.94 167.939 289.104V294H167.039V284.604H167.903V286.656ZM181.929 284.604L177.681 294H176.763L172.533 284.604H173.487L177.231 293.01L181.011 284.604H181.929ZM191.571 289.518H183.489C183.513 290.25 183.699 290.904 184.047 291.48C184.395 292.044 184.863 292.482 185.451 292.794C186.051 293.106 186.723 293.262 187.467 293.262C188.079 293.262 188.643 293.154 189.159 292.938C189.687 292.71 190.125 292.38 190.473 291.948L190.995 292.542C190.587 293.034 190.071 293.412 189.447 293.676C188.835 293.94 188.169 294.072 187.449 294.072C186.513 294.072 185.679 293.868 184.947 293.46C184.215 293.052 183.639 292.488 183.219 291.768C182.811 291.048 182.607 290.226 182.607 289.302C182.607 288.39 182.799 287.574 183.183 286.854C183.579 286.122 184.119 285.552 184.803 285.144C185.487 284.736 186.255 284.532 187.107 284.532C187.959 284.532 188.721 284.736 189.393 285.144C190.077 285.54 190.611 286.098 190.995 286.818C191.391 287.538 191.589 288.354 191.589 289.266L191.571 289.518ZM187.107 285.324C186.447 285.324 185.853 285.474 185.325 285.774C184.797 286.062 184.371 286.476 184.047 287.016C183.735 287.544 183.555 288.144 183.507 288.816H190.707C190.671 288.144 190.491 287.544 190.167 287.016C189.843 286.488 189.417 286.074 188.889 285.774C188.361 285.474 187.767 285.324 187.107 285.324ZM199.035 293.406C198.807 293.622 198.519 293.79 198.171 293.91C197.835 294.018 197.481 294.072 197.109 294.072C196.293 294.072 195.663 293.85 195.219 293.406C194.775 292.95 194.553 292.32 194.553 291.516V285.378H192.825V284.604H194.553V282.552H195.453V284.604H198.441V285.378H195.453V291.426C195.453 292.038 195.597 292.506 195.885 292.83C196.185 293.142 196.623 293.298 197.199 293.298C197.787 293.298 198.273 293.124 198.657 292.776L199.035 293.406ZM209.149 289.518H201.067C201.091 290.25 201.277 290.904 201.625 291.48C201.973 292.044 202.441 292.482 203.029 292.794C203.629 293.106 204.301 293.262 205.045 293.262C205.657 293.262 206.221 293.154 206.737 292.938C207.265 292.71 207.703 292.38 208.051 291.948L208.573 292.542C208.165 293.034 207.649 293.412 207.025 293.676C206.413 293.94 205.747 294.072 205.027 294.072C204.091 294.072 203.257 293.868 202.525 293.46C201.793 293.052 201.217 292.488 200.797 291.768C200.389 291.048 200.185 290.226 200.185 289.302C200.185 288.39 200.377 287.574 200.761 286.854C201.157 286.122 201.697 285.552 202.381 285.144C203.065 284.736 203.833 284.532 204.685 284.532C205.537 284.532 206.299 284.736 206.971 285.144C207.655 285.54 208.189 286.098 208.573 286.818C208.969 287.538 209.167 288.354 209.167 289.266L209.149 289.518ZM204.685 285.324C204.025 285.324 203.431 285.474 202.903 285.774C202.375 286.062 201.949 286.476 201.625 287.016C201.313 287.544 201.133 288.144 201.085 288.816H208.285C208.249 288.144 208.069 287.544 207.745 287.016C207.421 286.488 206.995 286.074 206.467 285.774C205.939 285.474 205.345 285.324 204.685 285.324ZM214.327 294.072C213.571 294.072 212.851 293.958 212.167 293.73C211.483 293.502 210.949 293.214 210.565 292.866L210.979 292.146C211.363 292.47 211.855 292.74 212.455 292.956C213.067 293.172 213.703 293.28 214.363 293.28C215.311 293.28 216.007 293.124 216.451 292.812C216.907 292.5 217.135 292.068 217.135 291.516C217.135 291.12 217.009 290.808 216.757 290.58C216.517 290.352 216.217 290.184 215.857 290.076C215.497 289.968 214.999 289.854 214.363 289.734C213.619 289.602 213.019 289.458 212.563 289.302C212.107 289.146 211.717 288.894 211.393 288.546C211.069 288.198 210.907 287.718 210.907 287.106C210.907 286.362 211.213 285.75 211.825 285.27C212.449 284.778 213.331 284.532 214.471 284.532C215.071 284.532 215.665 284.616 216.253 284.784C216.841 284.952 217.321 285.174 217.693 285.45L217.279 286.17C216.895 285.894 216.457 285.684 215.965 285.54C215.473 285.396 214.969 285.324 214.453 285.324C213.577 285.324 212.917 285.486 212.473 285.81C212.029 286.134 211.807 286.56 211.807 287.088C211.807 287.508 211.933 287.838 212.185 288.078C212.437 288.306 212.743 288.48 213.103 288.6C213.475 288.708 213.991 288.828 214.651 288.96C215.383 289.092 215.971 289.236 216.415 289.392C216.871 289.536 217.255 289.776 217.567 290.112C217.879 290.448 218.035 290.91 218.035 291.498C218.035 292.278 217.711 292.902 217.063 293.37C216.415 293.838 215.503 294.072 214.327 294.072Z" fill="#9E6A1D"/>
<path d="M423.258 281.4L417.642 294H416.724L411.108 281.4H412.116L417.21 292.812L422.304 281.4H423.258ZM432.219 289.518H424.137C424.161 290.25 424.347 290.904 424.695 291.48C425.043 292.044 425.511 292.482 426.099 292.794C426.699 293.106 427.371 293.262 428.115 293.262C428.727 293.262 429.291 293.154 429.807 292.938C430.335 292.71 430.773 292.38 431.121 291.948L431.643 292.542C431.235 293.034 430.719 293.412 430.095 293.676C429.483 293.94 428.817 294.072 428.097 294.072C427.161 294.072 426.327 293.868 425.595 293.46C424.863 293.052 424.287 292.488 423.867 291.768C423.459 291.048 423.255 290.226 423.255 289.302C423.255 288.39 423.447 287.574 423.831 286.854C424.227 286.122 424.767 285.552 425.451 285.144C426.135 284.736 426.903 284.532 427.755 284.532C428.607 284.532 429.369 284.736 430.041 285.144C430.725 285.54 431.259 286.098 431.643 286.818C432.039 287.538 432.237 288.354 432.237 289.266L432.219 289.518ZM427.755 285.324C427.095 285.324 426.501 285.474 425.973 285.774C425.445 286.062 425.019 286.476 424.695 287.016C424.383 287.544 424.203 288.144 424.155 288.816H431.355C431.319 288.144 431.139 287.544 430.815 287.016C430.491 286.488 430.065 286.074 429.537 285.774C429.009 285.474 428.415 285.324 427.755 285.324ZM443.481 284.604V292.992C443.481 294.552 443.103 295.704 442.347 296.448C441.591 297.192 440.451 297.564 438.927 297.564C438.063 297.564 437.247 297.432 436.479 297.168C435.711 296.904 435.093 296.538 434.625 296.07L435.111 295.386C435.579 295.818 436.143 296.154 436.803 296.394C437.463 296.634 438.165 296.754 438.909 296.754C440.157 296.754 441.081 296.454 441.681 295.854C442.281 295.266 442.581 294.348 442.581 293.1V291.516C442.197 292.2 441.663 292.728 440.979 293.1C440.295 293.472 439.527 293.658 438.675 293.658C437.799 293.658 437.001 293.466 436.281 293.082C435.573 292.686 435.015 292.14 434.607 291.444C434.199 290.748 433.995 289.962 433.995 289.086C433.995 288.21 434.199 287.424 434.607 286.728C435.015 286.032 435.573 285.492 436.281 285.108C437.001 284.724 437.799 284.532 438.675 284.532C439.539 284.532 440.319 284.724 441.015 285.108C441.711 285.492 442.245 286.032 442.617 286.728V284.604H443.481ZM438.747 292.848C439.479 292.848 440.139 292.692 440.727 292.38C441.315 292.056 441.771 291.612 442.095 291.048C442.431 290.472 442.599 289.818 442.599 289.086C442.599 288.354 442.431 287.706 442.095 287.142C441.771 286.578 441.315 286.14 440.727 285.828C440.139 285.504 439.479 285.342 438.747 285.342C438.015 285.342 437.355 285.504 436.767 285.828C436.191 286.14 435.735 286.578 435.399 287.142C435.075 287.706 434.913 288.354 434.913 289.086C434.913 289.818 435.075 290.472 435.399 291.048C435.735 291.612 436.191 292.056 436.767 292.38C437.355 292.692 438.015 292.848 438.747 292.848ZM450.459 284.532C451.623 284.532 452.517 284.832 453.141 285.432C453.765 286.02 454.077 286.89 454.077 288.042V294H453.213V292.326C452.913 292.878 452.475 293.31 451.899 293.622C451.323 293.922 450.633 294.072 449.829 294.072C448.785 294.072 447.957 293.826 447.345 293.334C446.745 292.842 446.445 292.194 446.445 291.39C446.445 290.61 446.721 289.98 447.273 289.5C447.837 289.008 448.731 288.762 449.955 288.762H453.177V288.006C453.177 287.13 452.937 286.464 452.457 286.008C451.989 285.552 451.299 285.324 450.387 285.324C449.763 285.324 449.163 285.432 448.587 285.648C448.023 285.864 447.543 286.152 447.147 286.512L446.697 285.864C447.165 285.444 447.729 285.12 448.389 284.892C449.049 284.652 449.739 284.532 450.459 284.532ZM449.955 293.334C450.735 293.334 451.395 293.154 451.935 292.794C452.487 292.434 452.901 291.912 453.177 291.228V289.464H449.973C449.049 289.464 448.377 289.632 447.957 289.968C447.549 290.304 447.345 290.766 447.345 291.354C447.345 291.966 447.573 292.452 448.029 292.812C448.485 293.16 449.127 293.334 449.955 293.334ZM462.375 284.532C463.551 284.532 464.481 284.874 465.165 285.558C465.849 286.242 466.191 287.226 466.191 288.51V294H465.291V288.582C465.291 287.526 465.021 286.722 464.481 286.17C463.953 285.618 463.209 285.342 462.249 285.342C461.145 285.342 460.275 285.672 459.639 286.332C459.003 286.992 458.685 287.88 458.685 288.996V294H457.785V284.604H458.649V286.638C458.973 285.978 459.453 285.462 460.089 285.09C460.737 284.718 461.499 284.532 462.375 284.532ZM473.586 294.072C472.698 294.072 471.894 293.868 471.174 293.46C470.466 293.052 469.908 292.488 469.5 291.768C469.092 291.036 468.888 290.214 468.888 289.302C468.888 288.39 469.092 287.574 469.5 286.854C469.908 286.122 470.466 285.552 471.174 285.144C471.894 284.736 472.698 284.532 473.586 284.532C474.474 284.532 475.272 284.736 475.98 285.144C476.7 285.552 477.264 286.122 477.672 286.854C478.08 287.574 478.284 288.39 478.284 289.302C478.284 290.214 478.08 291.036 477.672 291.768C477.264 292.488 476.7 293.052 475.98 293.46C475.272 293.868 474.474 294.072 473.586 294.072ZM473.586 293.262C474.306 293.262 474.948 293.094 475.512 292.758C476.088 292.422 476.538 291.954 476.862 291.354C477.198 290.754 477.366 290.07 477.366 289.302C477.366 288.534 477.198 287.85 476.862 287.25C476.538 286.65 476.088 286.182 475.512 285.846C474.948 285.51 474.306 285.342 473.586 285.342C472.866 285.342 472.218 285.51 471.642 285.846C471.078 286.182 470.628 286.65 470.292 287.25C469.968 287.85 469.806 288.534 469.806 289.302C469.806 290.07 469.968 290.754 470.292 291.354C470.628 291.954 471.078 292.422 471.642 292.758C472.218 293.094 472.866 293.262 473.586 293.262ZM483.452 294.072C482.696 294.072 481.976 293.958 481.292 293.73C480.608 293.502 480.074 293.214 479.69 292.866L480.104 292.146C480.488 292.47 480.98 292.74 481.58 292.956C482.192 293.172 482.828 293.28 483.488 293.28C484.436 293.28 485.132 293.124 485.576 292.812C486.032 292.5 486.26 292.068 486.26 291.516C486.26 291.12 486.134 290.808 485.882 290.58C485.642 290.352 485.342 290.184 484.982 290.076C484.622 289.968 484.124 289.854 483.488 289.734C482.744 289.602 482.144 289.458 481.688 289.302C481.232 289.146 480.842 288.894 480.518 288.546C480.194 288.198 480.032 287.718 480.032 287.106C480.032 286.362 480.338 285.75 480.95 285.27C481.574 284.778 482.456 284.532 483.596 284.532C484.196 284.532 484.79 284.616 485.378 284.784C485.966 284.952 486.446 285.174 486.818 285.45L486.404 286.17C486.02 285.894 485.582 285.684 485.09 285.54C484.598 285.396 484.094 285.324 483.578 285.324C482.702 285.324 482.042 285.486 481.598 285.81C481.154 286.134 480.932 286.56 480.932 287.088C480.932 287.508 481.058 287.838 481.31 288.078C481.562 288.306 481.868 288.48 482.228 288.6C482.6 288.708 483.116 288.828 483.776 288.96C484.508 289.092 485.096 289.236 485.54 289.392C485.996 289.536 486.38 289.776 486.692 290.112C487.004 290.448 487.16 290.91 487.16 291.498C487.16 292.278 486.836 292.902 486.188 293.37C485.54 293.838 484.628 294.072 483.452 294.072Z" fill="#9E6A1D"/>
<path d="M379.974 70.9999C384.474 78.4999 389.474 96.5001 382.474 100.5C375.474 104.5 368.474 91.9999 363.474 83.9999C358.474 75.9999 347.974 61.9999 355.974 57.4999C363.974 52.9999 375.474 63.4999 379.974 70.9999Z" fill="#F6EAEE"/>
</svg>
