<?xml version="1.0" encoding="UTF-8"?>
<svg xmlns="http://www.w3.org/2000/svg" xmlns:xlink="http://www.w3.org/1999/xlink" width="350pt" height="350pt" viewBox="0 0 350 350" version="1.1">
<g id="surface1">
<path style=" stroke:none;fill-rule:nonzero;fill:rgb(100%,100%,100%);fill-opacity:0.301961;" d="M 350 175 C 350 271.648438 271.648438 350 175 350 C 78.351562 350 0 271.648438 0 175 C 0 78.351562 78.351562 0 175 0 C 271.648438 0 350 78.351562 350 175 Z M 350 175 "/>
<path style=" stroke:none;fill-rule:nonzero;fill:rgb(97.647059%,95.294118%,66.27451%);fill-opacity:1;" d="M 305.355469 174.722656 C 305.355469 246.871094 246.871094 305.355469 174.722656 305.355469 C 102.578125 305.355469 44.09375 246.871094 44.09375 174.722656 C 44.09375 102.578125 102.578125 44.09375 174.722656 44.09375 C 246.871094 44.09375 305.355469 102.578125 305.355469 174.722656 Z M 305.355469 174.722656 "/>
<path style="fill:none;stroke-width:3;stroke-linecap:butt;stroke-linejoin:miter;stroke:rgb(100%,93.333333%,94.509804%);stroke-opacity:1;stroke-miterlimit:4;" d="M 537.999498 317.5 C 537.999498 439.276842 439.276842 537.999498 317.5 537.999498 C 195.723158 537.999498 97.000502 439.276842 97.000502 317.5 C 97.000502 195.723158 195.723158 97.000502 317.5 97.000502 C 439.276842 97.000502 537.999498 195.723158 537.999498 317.5 Z M 537.999498 317.5 " transform="matrix(0.551181,0,0,0.551181,0,0)"/>
<path style=" stroke:none;fill-rule:nonzero;fill:rgb(99.607843%,84.313725%,57.254902%);fill-opacity:1;" d="M 287.164062 174.722656 C 287.164062 236.824219 236.824219 287.164062 174.722656 287.164062 C 112.625 287.164062 62.285156 236.824219 62.285156 174.722656 C 62.285156 112.625 112.625 62.285156 174.722656 62.285156 C 236.824219 62.285156 287.164062 112.625 287.164062 174.722656 Z M 287.164062 174.722656 "/>
<path style=" stroke:none;fill-rule:nonzero;fill:rgb(97.647059%,95.294118%,66.27451%);fill-opacity:1;" d="M 106.378906 139.449219 C 106.378906 141.882812 104.402344 143.859375 101.96875 143.859375 C 99.535156 143.859375 97.558594 141.882812 97.558594 139.449219 C 97.558594 137.011719 99.535156 135.039062 101.96875 135.039062 C 104.402344 135.039062 106.378906 137.011719 106.378906 139.449219 Z M 106.378906 139.449219 "/>
<path style=" stroke:none;fill-rule:nonzero;fill:rgb(97.647059%,95.294118%,66.27451%);fill-opacity:1;" d="M 251.890625 139.449219 C 251.890625 141.882812 249.914062 143.859375 247.480469 143.859375 C 245.046875 143.859375 243.070312 141.882812 243.070312 139.449219 C 243.070312 137.011719 245.046875 135.039062 247.480469 135.039062 C 249.914062 135.039062 251.890625 137.011719 251.890625 139.449219 Z M 251.890625 139.449219 "/>
<path style=" stroke:none;fill-rule:nonzero;fill:rgb(67.843137%,92.156863%,87.058824%);fill-opacity:1;" d="M 48.992188 184.6875 L 300.742188 184.6875 L 300.742188 270.355469 L 48.992188 270.355469 Z M 48.992188 184.6875 "/>
<path style=" stroke:none;fill-rule:nonzero;fill:rgb(67.843137%,92.156863%,87.058824%);fill-opacity:1;" d="M 49.257812 184.644531 L 49.257812 270.589844 L 39.234375 270.5 C 30.003906 270.417969 24.441406 260.226562 29.304688 252.382812 C 38.738281 237.167969 38.777344 217.855469 29.34375 202.640625 C 24.476562 194.789062 30.125 184.644531 39.363281 184.644531 Z M 49.257812 184.644531 "/>
<path style=" stroke:none;fill-rule:nonzero;fill:rgb(67.843137%,92.156863%,87.058824%);fill-opacity:1;" d="M 300.742188 184.6875 L 300.742188 270.628906 L 310.765625 270.539062 C 319.996094 270.457031 325.558594 260.265625 320.695312 252.421875 C 311.261719 237.207031 311.222656 217.898438 320.65625 202.679688 C 325.523438 194.828125 319.875 184.6875 310.636719 184.6875 Z M 300.742188 184.6875 "/>
<path style=" stroke:none;fill-rule:nonzero;fill:rgb(100%,93.333333%,94.509804%);fill-opacity:1;" d="M 229.84375 211.652344 C 229.84375 214.089844 227.867188 216.0625 225.433594 216.0625 C 222.996094 216.0625 221.023438 214.089844 221.023438 211.652344 C 221.023438 209.21875 222.996094 207.242188 225.433594 207.242188 C 227.867188 207.242188 229.84375 209.21875 229.84375 211.652344 Z M 229.84375 211.652344 "/>
<path style=" stroke:none;fill-rule:nonzero;fill:rgb(100%,93.333333%,94.509804%);fill-opacity:1;" d="M 128.425781 211.652344 C 128.425781 214.089844 126.449219 216.0625 124.015625 216.0625 C 121.582031 216.0625 119.605469 214.089844 119.605469 211.652344 C 119.605469 209.21875 121.582031 207.242188 124.015625 207.242188 C 126.449219 207.242188 128.425781 209.21875 128.425781 211.652344 Z M 128.425781 211.652344 "/>
<path style=" stroke:none;fill-rule:nonzero;fill:rgb(75.294118%,100%,89.411765%);fill-opacity:1;" d="M 232.597656 73.859375 C 232.597656 105.820312 206.6875 131.730469 174.722656 131.730469 C 142.761719 131.730469 116.851562 105.820312 116.851562 73.859375 C 116.851562 41.894531 142.761719 15.984375 174.722656 15.984375 C 206.6875 15.984375 232.597656 41.894531 232.597656 73.859375 Z M 232.597656 73.859375 "/>
<path style=" stroke:none;fill-rule:nonzero;fill:rgb(99.215686%,73.72549%,41.568627%);fill-opacity:1;" d="M 128 111.90625 C 126.234375 103.671875 132.511719 95.90625 140.933594 95.90625 L 208.515625 95.90625 C 216.9375 95.90625 223.214844 103.671875 221.449219 111.90625 L 205.078125 188.246094 C 203.769531 194.34375 198.378906 198.699219 192.144531 198.699219 L 157.304688 198.699219 C 151.070312 198.699219 145.679688 194.34375 144.371094 188.246094 Z M 128 111.90625 "/>
<path style=" stroke:none;fill-rule:nonzero;fill:rgb(88.235294%,63.137255%,25.490196%);fill-opacity:1;" d="M 119.605469 104.171875 C 119.605469 99.605469 123.308594 95.90625 127.875 95.90625 L 221.574219 95.90625 C 226.140625 95.90625 229.84375 99.605469 229.84375 104.171875 L 229.84375 118.503906 C 229.84375 123.070312 226.140625 126.773438 221.574219 126.773438 L 127.875 126.773438 C 123.308594 126.773438 119.605469 123.070312 119.605469 118.503906 Z M 119.605469 104.171875 "/>
<path style="fill:none;stroke-width:3;stroke-linecap:butt;stroke-linejoin:miter;stroke:rgb(88.235294%,63.137255%,25.490196%);stroke-opacity:1;stroke-miterlimit:4;" d="M 242.001618 224.999777 L 384.997098 281.001674 " transform="matrix(0.551181,0,0,0.551181,0,0)"/>
<path style="fill:none;stroke-width:3;stroke-linecap:butt;stroke-linejoin:miter;stroke:rgb(88.235294%,63.137255%,25.490196%);stroke-opacity:1;stroke-miterlimit:4;" d="M 391.999107 224.999777 L 248.99654 281.001674 " transform="matrix(0.551181,0,0,0.551181,0,0)"/>
<path style="fill:none;stroke-width:3;stroke-linecap:butt;stroke-linejoin:miter;stroke:rgb(88.235294%,63.137255%,25.490196%);stroke-opacity:1;stroke-miterlimit:4;" d="M 242.001618 185.000446 L 392.998382 244.000167 " transform="matrix(0.551181,0,0,0.551181,0,0)"/>
<path style="fill:none;stroke-width:3;stroke-linecap:butt;stroke-linejoin:miter;stroke:rgb(88.235294%,63.137255%,25.490196%);stroke-opacity:1;stroke-miterlimit:4;" d="M 391.999107 185.000446 L 241.002344 244.000167 " transform="matrix(0.551181,0,0,0.551181,0,0)"/>
<path style="fill:none;stroke-width:3;stroke-linecap:butt;stroke-linejoin:miter;stroke:rgb(88.235294%,63.137255%,25.490196%);stroke-opacity:1;stroke-miterlimit:4;" d="M 254.999275 304.998438 L 368.002344 349.001953 " transform="matrix(0.551181,0,0,0.551181,0,0)"/>
<path style="fill:none;stroke-width:3;stroke-linecap:butt;stroke-linejoin:miter;stroke:rgb(88.235294%,63.137255%,25.490196%);stroke-opacity:1;stroke-miterlimit:4;" d="M 379.001451 304.998438 L 265.998382 349.001953 " transform="matrix(0.551181,0,0,0.551181,0,0)"/>
<path style="fill:none;stroke-width:3;stroke-linecap:butt;stroke-linejoin:miter;stroke:rgb(88.235294%,63.137255%,25.490196%);stroke-opacity:1;stroke-miterlimit:4;" d="M 263.999833 344.997768 L 300.002065 359.001786 " transform="matrix(0.551181,0,0,0.551181,0,0)"/>
<path style="fill:none;stroke-width:3;stroke-linecap:butt;stroke-linejoin:miter;stroke:rgb(88.235294%,63.137255%,25.490196%);stroke-opacity:1;stroke-miterlimit:4;" d="M 370.000893 344.997768 L 333.998661 359.001786 " transform="matrix(0.551181,0,0,0.551181,0,0)"/>
<path style="fill:none;stroke-width:3;stroke-linecap:butt;stroke-linejoin:miter;stroke:rgb(88.235294%,63.137255%,25.490196%);stroke-opacity:1;stroke-miterlimit:4;" d="M 245.998717 263.999833 L 377.002902 316.996819 " transform="matrix(0.551181,0,0,0.551181,0,0)"/>
<path style="fill:none;stroke-width:3;stroke-linecap:butt;stroke-linejoin:miter;stroke:rgb(88.235294%,63.137255%,25.490196%);stroke-opacity:1;stroke-miterlimit:4;" d="M 388.002009 263.999833 L 256.997824 316.996819 " transform="matrix(0.551181,0,0,0.551181,0,0)"/>
<path style=" stroke:none;fill-rule:nonzero;fill:rgb(75.294118%,100%,89.411765%);fill-opacity:1;" d="M 235.84375 93.863281 C 235.851562 86.140625 229.609375 79.867188 221.886719 79.832031 L 128.1875 79.433594 C 120.222656 79.398438 113.75 85.859375 113.773438 93.824219 L 113.773438 95.15625 C 113.8125 108.347656 130.492188 114.070312 138.617188 103.675781 C 142.476562 98.734375 149.570312 97.765625 154.613281 101.492188 L 160.917969 106.144531 C 169.128906 112.207031 180.3125 112.289062 188.617188 106.351562 L 195.953125 101.101562 C 200.914062 97.550781 207.796875 98.582031 211.507812 103.425781 C 219.386719 113.71875 235.832031 108.152344 235.84375 95.191406 Z M 235.84375 93.863281 "/>
<path style=" stroke:none;fill-rule:nonzero;fill:rgb(100%,93.333333%,94.509804%);fill-opacity:1;" d="M 82.148438 157.550781 C 83.59375 157.933594 83.691406 158.421875 83.691406 158.75 C 83.691406 159.445312 83.019531 159.898438 82.191406 159.898438 C 81.554688 159.898438 80.78125 159.535156 80.496094 158.738281 L 79.347656 158.917969 C 79.757812 160.140625 80.878906 160.957031 82.203125 160.957031 C 83.359375 160.957031 84.859375 160.25 84.859375 158.738281 C 84.859375 157.660156 84.054688 156.921875 82.421875 156.46875 C 81.464844 156.203125 80.96875 155.886719 80.96875 155.410156 C 80.96875 155.023438 81.210938 154.464844 82.457031 154.464844 C 82.953125 154.464844 83.78125 154.640625 83.78125 155.289062 C 83.78125 155.34375 83.769531 155.609375 83.691406 155.765625 L 84.78125 155.566406 C 84.828125 155.3125 84.828125 155.234375 84.828125 155.15625 C 84.828125 153.824219 83.492188 153.4375 82.457031 153.4375 C 81.300781 153.4375 79.800781 153.8125 79.800781 155.476562 C 79.800781 156.632812 81.058594 157.261719 82.148438 157.550781 Z M 88.507812 160.945312 C 89.917969 160.945312 91.097656 159.601562 91.097656 157.992188 C 91.097656 156.613281 90.105469 155.433594 88.816406 155.433594 C 87.417969 155.433594 86.238281 156.789062 86.238281 158.386719 C 86.238281 159.789062 87.21875 160.945312 88.507812 160.945312 Z M 88.773438 156.414062 C 89.46875 156.414062 90.019531 157.164062 90.019531 158.035156 C 90.019531 159.070312 89.292969 159.964844 88.507812 159.964844 C 87.792969 159.964844 87.308594 159.226562 87.308594 158.367188 C 87.308594 157.328125 87.980469 156.414062 88.773438 156.414062 Z M 96.152344 156.371094 C 96.152344 155.839844 95.691406 155.410156 95.074219 155.410156 C 94.476562 155.410156 93.972656 155.753906 93.609375 156.148438 L 93.609375 155.355469 L 92.539062 155.554688 L 92.539062 161 L 93.609375 160.8125 L 93.609375 158.167969 C 93.609375 157.328125 94.292969 156.457031 94.898438 156.457031 C 95.039062 156.457031 95.097656 156.589844 95.097656 156.679688 L 95.097656 157.195312 L 96.152344 157.019531 Z M 101.554688 155.730469 L 100.5625 155.355469 L 99.082031 159.226562 L 97.617188 155.355469 L 96.625 155.753906 L 98.675781 160.976562 L 99.578125 160.78125 Z M 105.011719 160.945312 C 105.714844 160.945312 106.464844 160.582031 107.09375 159.917969 L 106.355469 159.226562 C 105.925781 159.675781 105.460938 159.929688 105.011719 159.929688 C 104.46875 159.929688 103.953125 159.601562 103.65625 159.203125 L 107.160156 157.253906 C 106.875 156.25 106.011719 155.410156 105.011719 155.410156 C 103.511719 155.410156 102.332031 156.667969 102.332031 158.179688 C 102.332031 159.699219 103.523438 160.945312 105.011719 160.945312 Z M 103.347656 158.222656 C 103.347656 157.261719 104.019531 156.425781 105.011719 156.425781 C 105.296875 156.425781 105.617188 156.578125 105.828125 156.8125 Z M 111.917969 155.410156 L 110.542969 155.410156 L 110.542969 153.667969 L 109.460938 153.84375 L 109.460938 155.410156 L 108.082031 155.410156 L 108.082031 156.46875 L 109.460938 156.46875 L 109.460938 161 L 110.542969 160.8125 L 110.542969 156.46875 L 111.917969 156.46875 Z M 115.507812 160.945312 C 116.210938 160.945312 116.960938 160.582031 117.589844 159.917969 L 116.851562 159.226562 C 116.421875 159.675781 115.957031 159.929688 115.507812 159.929688 C 114.964844 159.929688 114.449219 159.601562 114.152344 159.203125 L 117.65625 157.253906 C 117.371094 156.25 116.507812 155.410156 115.507812 155.410156 C 114.007812 155.410156 112.828125 156.667969 112.828125 158.179688 C 112.828125 159.699219 114.019531 160.945312 115.507812 160.945312 Z M 113.84375 158.222656 C 113.84375 157.261719 114.515625 156.425781 115.507812 156.425781 C 115.792969 156.425781 116.113281 156.578125 116.324219 156.8125 Z M 120.925781 158.53125 C 121.488281 158.683594 121.941406 158.894531 121.941406 159.335938 C 121.941406 159.667969 121.578125 159.941406 120.992188 159.941406 C 120.53125 159.941406 120.046875 159.667969 119.871094 159.105469 L 118.832031 159.28125 C 119.128906 160.339844 120.054688 160.945312 120.992188 160.945312 C 121.644531 160.945312 123 160.582031 123 159.234375 C 123 158.421875 122.40625 157.871094 121.179688 157.527344 C 120.5625 157.351562 120.253906 157.195312 120.253906 156.910156 C 120.253906 156.632812 120.453125 156.359375 121.191406 156.347656 C 121.542969 156.347656 121.984375 156.46875 121.984375 156.84375 C 121.984375 156.933594 121.984375 157.097656 121.910156 157.316406 L 122.933594 157.121094 C 122.976562 156.878906 122.976562 156.800781 122.976562 156.710938 C 122.976562 155.609375 121.851562 155.378906 121.191406 155.378906 C 120.34375 155.378906 119.175781 155.640625 119.175781 156.921875 C 119.175781 157.914062 120.101562 158.308594 120.925781 158.53125 Z M 120.925781 158.53125 "/>
<path style=" stroke:none;fill-rule:nonzero;fill:rgb(100%,93.333333%,94.509804%);fill-opacity:1;" d="M 229.414062 159.027344 L 227.59375 153.371094 L 226.558594 153.757812 L 228.871094 160.976562 L 229.898438 160.8125 L 232.554688 153.78125 L 231.539062 153.359375 Z M 235.546875 160.945312 C 236.25 160.945312 237 160.582031 237.628906 159.917969 L 236.890625 159.226562 C 236.460938 159.675781 235.996094 159.929688 235.546875 159.929688 C 235.003906 159.929688 234.488281 159.601562 234.191406 159.203125 L 237.695312 157.253906 C 237.410156 156.25 236.546875 155.410156 235.546875 155.410156 C 234.046875 155.410156 232.867188 156.667969 232.867188 158.179688 C 232.867188 159.699219 234.058594 160.945312 235.546875 160.945312 Z M 233.882812 158.222656 C 233.882812 157.261719 234.554688 156.425781 235.546875 156.425781 C 235.832031 156.425781 236.152344 156.578125 236.363281 156.8125 Z M 243.546875 155.300781 L 242.464844 155.464844 L 242.464844 155.578125 C 242.199219 155.464844 241.949219 155.421875 241.582031 155.421875 C 239.996094 155.421875 238.960938 156.832031 238.960938 158.242188 C 238.960938 159.753906 239.917969 160.835938 241.199219 160.835938 C 241.628906 160.835938 242.023438 160.734375 242.355469 160.480469 C 242.34375 160.84375 242.199219 161.738281 241.144531 161.738281 C 240.703125 161.738281 240.160156 161.652344 239.808594 161.5625 L 239.589844 162.597656 C 240.03125 162.699219 240.65625 162.796875 241.144531 162.796875 C 242.566406 162.796875 243.390625 161.980469 243.425781 160.515625 Z M 242.421875 156.691406 L 242.421875 158.011719 C 242.421875 159.445312 241.726562 159.789062 241.144531 159.796875 C 240.304688 159.796875 239.953125 158.863281 239.953125 158.265625 C 239.953125 157.285156 240.667969 156.46875 241.640625 156.46875 C 241.925781 156.46875 242.222656 156.570312 242.421875 156.691406 Z M 249.386719 155.808594 C 248.824219 155.519531 248.207031 155.300781 247.613281 155.300781 C 245.695312 155.300781 244.988281 157.339844 244.988281 158.453125 C 244.988281 159.898438 245.890625 160.878906 247.117188 160.878906 C 247.566406 160.878906 247.976562 160.746094 248.328125 160.570312 L 248.328125 161 L 249.386719 160.800781 Z M 246.058594 158.441406 C 246.058594 157.683594 246.476562 156.347656 247.667969 156.347656 C 247.875 156.347656 248.164062 156.402344 248.351562 156.492188 L 248.304688 159.367188 C 248.042969 159.554688 247.546875 159.820312 247.105469 159.820312 C 246.34375 159.808594 246.058594 159.046875 246.058594 158.441406 Z M 254.515625 161 L 255.5625 160.78125 L 255.550781 159.542969 C 255.542969 158.199219 255.542969 157.351562 255.386719 156.691406 C 255.175781 155.839844 254.671875 155.421875 253.867188 155.421875 C 253.136719 155.421875 252.488281 155.828125 252.058594 156.445312 L 252.058594 155.355469 L 251 155.554688 L 251 161 L 252.046875 160.800781 L 252.058594 159.457031 C 252.058594 158.816406 252.277344 158.011719 252.574219 157.429688 C 253.039062 156.601562 253.492188 156.46875 253.84375 156.46875 C 254.121094 156.46875 254.308594 156.710938 254.394531 157.066406 C 254.515625 157.539062 254.515625 158.242188 254.515625 159.214844 Z M 259.304688 160.945312 C 260.71875 160.945312 261.894531 159.601562 261.894531 157.992188 C 261.894531 156.613281 260.90625 155.433594 259.613281 155.433594 C 258.214844 155.433594 257.035156 156.789062 257.035156 158.386719 C 257.035156 159.789062 258.015625 160.945312 259.304688 160.945312 Z M 259.570312 156.414062 C 260.265625 156.414062 260.816406 157.164062 260.816406 158.035156 C 260.816406 159.070312 260.089844 159.964844 259.304688 159.964844 C 258.589844 159.964844 258.105469 159.226562 258.105469 158.367188 C 258.105469 157.328125 258.777344 156.414062 259.570312 156.414062 Z M 265.21875 158.53125 C 265.78125 158.683594 266.234375 158.894531 266.234375 159.335938 C 266.234375 159.667969 265.871094 159.941406 265.285156 159.941406 C 264.824219 159.941406 264.339844 159.667969 264.164062 159.105469 L 263.125 159.28125 C 263.421875 160.339844 264.351562 160.945312 265.285156 160.945312 C 265.9375 160.945312 267.292969 160.582031 267.292969 159.234375 C 267.292969 158.421875 266.699219 157.871094 265.472656 157.527344 C 264.855469 157.351562 264.546875 157.195312 264.546875 156.910156 C 264.546875 156.632812 264.746094 156.359375 265.484375 156.347656 C 265.839844 156.347656 266.277344 156.46875 266.277344 156.84375 C 266.277344 156.933594 266.277344 157.097656 266.203125 157.316406 L 267.226562 157.121094 C 267.269531 156.878906 267.269531 156.800781 267.269531 156.710938 C 267.269531 155.609375 266.148438 155.378906 265.484375 155.378906 C 264.636719 155.378906 263.46875 155.640625 263.46875 156.921875 C 263.46875 157.914062 264.394531 158.308594 265.21875 158.53125 Z M 265.21875 158.53125 "/>
<path style=" stroke:none;fill-rule:nonzero;fill:rgb(100%,93.333333%,94.509804%);fill-opacity:1;" d="M 151.582031 212.5 C 150.710938 212.289062 149.84375 212.171875 149.089844 212.171875 C 148.011719 212.171875 146.777344 212.363281 145.695312 212.710938 L 145.695312 214.757812 C 146.621094 214.371094 147.894531 214.0625 148.898438 214.023438 C 148.320312 215.546875 147.046875 216.433594 145.214844 216.433594 C 142.667969 216.433594 141.335938 214.023438 141.335938 211.6875 C 141.335938 210.089844 142.589844 206.964844 145.5625 206.964844 C 147.546875 206.964844 148.78125 208.160156 149.246094 209.972656 L 151.078125 209.605469 C 150.421875 206.945312 148.511719 205.109375 145.5625 205.109375 C 141.914062 205.109375 139.464844 208.621094 139.464844 211.6875 C 139.464844 215.394531 141.839844 218.304688 145.214844 218.304688 C 149.167969 218.304688 150.421875 215.527344 150.789062 214.214844 C 151.078125 214.273438 151.328125 214.371094 151.582031 214.46875 Z M 156.277344 216.359375 L 156.277344 212.402344 L 162.78125 212.402344 L 163.339844 210.511719 L 156.277344 210.511719 L 156.277344 207.039062 L 163.667969 207.039062 L 163.996094 205.128906 L 154.367188 205.128906 L 154.367188 218.269531 L 163.511719 218.269531 L 164.1875 216.359375 Z M 166.613281 218.304688 L 174.734375 217.707031 L 174.636719 215.796875 L 168.523438 216.261719 L 168.523438 205.089844 L 166.613281 205.4375 Z M 182.601562 205.074219 L 180.710938 205.417969 L 177.929688 212.886719 L 176.386719 213.175781 L 176.714844 215.027344 L 177.160156 214.96875 L 176.175781 217.574219 L 177.855469 218.421875 L 179.300781 214.507812 L 183.410156 213.636719 L 185.03125 218.5 L 186.652344 217.398438 Z M 180.074219 212.421875 L 181.636719 208.273438 L 182.832031 211.824219 Z M 190.757812 218.363281 L 192.6875 218.035156 L 192.6875 207.039062 L 196.816406 207.039062 L 196.816406 205.128906 L 186.917969 205.128906 L 186.917969 207.039062 L 190.757812 207.039062 Z M 203.332031 218.304688 C 206.378906 218.304688 209.023438 215.066406 209.023438 211.226562 C 209.023438 207.890625 206.921875 205.109375 204.085938 205.109375 C 201.054688 205.109375 198.414062 208.351562 198.414062 212.191406 C 198.414062 215.488281 200.457031 218.304688 203.332031 218.304688 Z M 203.96875 206.945312 C 205.839844 206.945312 207.171875 209.105469 207.171875 211.304688 C 207.171875 214.101562 205.320312 216.472656 203.332031 216.472656 C 201.558594 216.472656 200.265625 214.523438 200.265625 212.191406 C 200.265625 209.277344 201.980469 206.945312 203.96875 206.945312 Z M 203.96875 206.945312 "/>
<path style=" stroke:none;fill-rule:nonzero;fill:rgb(100%,93.333333%,94.509804%);fill-opacity:1;" d="M 86.652344 232.191406 L 87.34375 228.371094 L 69.367188 228.371094 L 69.367188 254.839844 L 73.1875 254.183594 L 73.1875 243.265625 L 84.875 243.265625 L 85.53125 239.40625 L 73.1875 239.40625 L 73.1875 232.191406 Z M 102.480469 232.191406 L 103.175781 228.371094 L 90.25 228.371094 L 89.59375 232.191406 L 94.570312 232.191406 L 94.570312 250.824219 L 90.25 250.824219 L 89.59375 254.644531 L 102.480469 254.644531 L 103.175781 250.824219 L 98.390625 250.824219 L 98.390625 232.191406 Z M 123.464844 228.871094 L 123.464844 247.546875 L 111.347656 228.214844 L 107.953125 229.179688 L 107.992188 254.800781 L 111.695312 254.066406 L 111.695312 235.777344 L 123.542969 254.761719 L 127.167969 254.027344 L 127.167969 228.179688 Z M 142.355469 254.722656 C 148.453125 254.722656 153.738281 248.242188 153.738281 240.5625 C 153.738281 233.886719 149.53125 228.332031 143.859375 228.332031 C 137.804688 228.332031 132.515625 234.8125 132.515625 242.492188 C 132.515625 249.089844 136.605469 254.722656 142.355469 254.722656 Z M 143.628906 231.996094 C 147.371094 231.996094 150.035156 236.320312 150.035156 240.71875 C 150.035156 246.3125 146.328125 251.058594 142.355469 251.058594 C 138.804688 251.058594 136.222656 247.160156 136.222656 242.492188 C 136.222656 236.667969 139.65625 231.996094 143.628906 231.996094 Z M 169.691406 254.683594 C 173.746094 254.683594 177.527344 252.484375 179.726562 248.898438 L 176.945312 246.117188 C 175.363281 249.242188 172.742188 250.980469 169.691406 250.980469 C 165.601562 250.980469 162.285156 247.46875 162.285156 243.226562 C 162.285156 238.789062 165.71875 232.074219 169.925781 232.074219 C 172.199219 232.074219 173.667969 233 174.515625 233.847656 L 174.515625 235.277344 L 177.949219 235.277344 L 177.949219 228.988281 L 174.515625 228.988281 L 174.515625 229.527344 C 173.203125 228.910156 171.660156 228.371094 170.117188 228.371094 C 163.210938 228.371094 158.621094 237.128906 158.621094 243.300781 C 158.621094 249.746094 163.675781 254.683594 169.691406 254.683594 Z M 195.050781 254.683594 C 199.101562 254.683594 202.882812 252.484375 205.082031 248.898438 L 202.304688 246.117188 C 200.722656 249.242188 198.097656 250.980469 195.050781 250.980469 C 190.960938 250.980469 187.644531 247.46875 187.644531 243.226562 C 187.644531 238.789062 191.078125 232.074219 195.28125 232.074219 C 197.558594 232.074219 199.023438 233 199.875 233.847656 L 199.875 235.277344 L 203.308594 235.277344 L 203.308594 228.988281 L 199.875 228.988281 L 199.875 229.527344 C 198.5625 228.910156 197.019531 228.371094 195.476562 228.371094 C 188.570312 228.371094 183.976562 237.128906 183.976562 243.300781 C 183.976562 249.746094 189.03125 254.683594 195.050781 254.683594 Z M 227.738281 228.871094 L 227.738281 238.363281 L 213.695312 240.371094 L 213.695312 228.179688 L 209.875 228.871094 L 209.875 254.992188 L 213.695312 253.679688 L 213.695312 244.226562 L 227.738281 242.222656 L 227.738281 254.992188 L 231.558594 253.679688 L 231.558594 228.179688 Z M 249.578125 232.191406 L 250.269531 228.371094 L 237.347656 228.371094 L 236.691406 232.191406 L 241.667969 232.191406 L 241.667969 250.824219 L 237.347656 250.824219 L 236.691406 254.644531 L 249.578125 254.644531 L 250.269531 250.824219 L 245.488281 250.824219 L 245.488281 232.191406 Z M 264.734375 254.722656 C 270.832031 254.722656 276.117188 248.242188 276.117188 240.5625 C 276.117188 233.886719 271.910156 228.332031 266.238281 228.332031 C 260.183594 228.332031 254.894531 234.8125 254.894531 242.492188 C 254.894531 249.089844 258.984375 254.722656 264.734375 254.722656 Z M 266.007812 231.996094 C 269.75 231.996094 272.414062 236.320312 272.414062 240.71875 C 272.414062 246.3125 268.710938 251.058594 264.734375 251.058594 C 261.183594 251.058594 258.601562 247.160156 258.601562 242.492188 C 258.601562 236.667969 262.035156 231.996094 266.007812 231.996094 Z M 266.007812 231.996094 "/>
<path style=" stroke:none;fill-rule:nonzero;fill:rgb(100%,93.333333%,94.509804%);fill-opacity:1;" d="M 209.433594 39.132812 C 211.914062 43.269531 214.671875 53.1875 210.8125 55.394531 C 206.953125 57.597656 203.097656 50.707031 200.339844 46.300781 C 197.585938 41.890625 191.796875 34.171875 196.207031 31.691406 C 200.617188 29.210938 206.953125 35 209.433594 39.132812 Z M 209.433594 39.132812 "/>
</g>
</svg>
