<?xml version="1.0" encoding="utf-8"?>
<!-- Generator: Adobe Illustrator 19.2.0, SVG Export Plug-In . SVG Version: 6.00 Build 0)  -->
<svg version="1.1" id="Camada_1" xmlns="http://www.w3.org/2000/svg" xmlns:xlink="http://www.w3.org/1999/xlink" x="0px" y="0px"
	 viewBox="0 0 635 635" style="enable-background:new 0 0 635 635;" xml:space="preserve">
<style type="text/css">
	.st0{fill:#FFFFFF;fill-opacity:0.3;}
	.st1{fill:#F9F3A9;}
	.st2{fill:none;stroke:#FFEEF1;stroke-width:3;}
	.st3{fill:#FED792;}
	.st4{fill:#ADEBDE;}
	.st5{fill:#FFEEF1;}
	.st6{fill:#C0FFE4;}
	.st7{fill:#FDBC6A;}
	.st8{fill:#E1A141;}
	.st9{fill:none;stroke:#E1A141;stroke-width:3;}
</style>
<circle class="st0" cx="322.6" cy="316.4" r="102.9"/>
<circle class="st1" cx="322.5" cy="316.3" r="76.8"/>
<circle class="st2" cx="322.6" cy="316.4" r="71.5"/>
<circle class="st3" cx="322.5" cy="316.3" r="66.1"/>
<circle class="st1" cx="279.7" cy="295.5" r="2.6"/>
<circle class="st1" cx="365.3" cy="295.5" r="2.6"/>
<rect x="248.6" y="322.1" class="st4" width="148" height="50.4"/>
<path class="st4" d="M248.7,322.1v50.5l-5.9-0.1c-5.4,0-8.7-6-5.8-10.7c5.5-8.9,5.6-20.3,0-29.2c-2.9-4.6,0.5-10.6,5.9-10.6H248.7z"
	/>
<path class="st4" d="M396.6,322.1v50.5l5.9-0.1c5.4,0,8.7-6,5.8-10.7c-5.5-8.9-5.6-20.3,0-29.2c2.9-4.6-0.5-10.6-5.9-10.6H396.6z"/>
<circle class="st5" cx="352.3" cy="338" r="2.6"/>
<circle class="st5" cx="292.7" cy="338" r="2.6"/>
<circle class="st6" cx="322.5" cy="257" r="34"/>
<path class="st7" d="M295,279.4c-1-4.8,2.7-9.4,7.6-9.4h39.7c5,0,8.6,4.6,7.6,9.4l-9.6,44.9c-0.8,3.6-3.9,6.1-7.6,6.1h-20.5
	c-3.7,0-6.8-2.6-7.6-6.1L295,279.4z"/>
<path class="st8" d="M290.1,274.8c0-2.7,2.2-4.9,4.9-4.9H350c2.7,0,4.9,2.2,4.9,4.9v8.4c0,2.7-2.2,4.9-4.9,4.9h-55.1
	c-2.7,0-4.9-2.2-4.9-4.9V274.8z"/>
<path class="st9" d="M298.2,286.5l46.3,18.1"/>
<path class="st9" d="M346.8,286.5l-46.3,18.1"/>
<path class="st9" d="M298.2,273.5l48.9,19.1"/>
<path class="st9" d="M346.8,273.5l-48.9,19.1"/>
<path class="st9" d="M302.4,312.4l36.6,14.3"/>
<path class="st9" d="M342.6,312.4L306,326.7"/>
<path class="st9" d="M305.3,325.4l11.7,4.5"/>
<path class="st9" d="M339.7,325.4l-11.7,4.5"/>
<path class="st9" d="M299.5,299.1l42.5,17.2"/>
<path class="st9" d="M345.5,299.1L303,316.3"/>
<path class="st6" d="M358.4,268.7c0-4.5-3.7-8.2-8.2-8.2l-55.1-0.2c-4.7,0-8.5,3.8-8.5,8.5l0,0.8c0,7.8,9.8,11.1,14.6,5
	c2.3-2.9,6.4-3.5,9.4-1.3l3.7,2.7c4.8,3.6,11.4,3.6,16.3,0.1l4.3-3.1c2.9-2.1,7-1.5,9.1,1.4c4.6,6.1,14.3,2.8,14.3-4.8L358.4,268.7z
	"/>
<path class="st5" d="M268.1,306.2c0.8,0.2,0.9,0.5,0.9,0.7c0,0.4-0.4,0.7-0.9,0.7c-0.4,0-0.8-0.2-1-0.7l-0.7,0.1
	c0.2,0.7,0.9,1.2,1.7,1.2c0.7,0,1.6-0.4,1.6-1.3c0-0.6-0.5-1.1-1.4-1.3c-0.6-0.2-0.9-0.3-0.9-0.6c0-0.2,0.1-0.6,0.9-0.6
	c0.3,0,0.8,0.1,0.8,0.5c0,0,0,0.2-0.1,0.3l0.6-0.1c0-0.1,0-0.2,0-0.2c0-0.8-0.8-1-1.4-1c-0.7,0-1.6,0.2-1.6,1.2
	C266.7,305.7,267.4,306,268.1,306.2z M271.8,308.2c0.8,0,1.5-0.8,1.5-1.7c0-0.8-0.6-1.5-1.3-1.5c-0.8,0-1.5,0.8-1.5,1.7
	C270.5,307.5,271,308.2,271.8,308.2z M272,305.5c0.4,0,0.7,0.4,0.7,1c0,0.6-0.4,1.1-0.9,1.1c-0.4,0-0.7-0.4-0.7-0.9
	C271.1,306.1,271.5,305.5,272,305.5z M276.3,305.5c0-0.3-0.3-0.6-0.6-0.6c-0.3,0-0.6,0.2-0.9,0.4v-0.5l-0.6,0.1v3.2l0.6-0.1v-1.6
	c0-0.5,0.4-1,0.8-1c0.1,0,0.1,0.1,0.1,0.1v0.3l0.6-0.1V305.5z M279.5,305.1l-0.6-0.2l-0.9,2.3l-0.9-2.3l-0.6,0.2l1.2,3.1l0.5-0.1
	L279.5,305.1z M281.5,308.2c0.4,0,0.9-0.2,1.2-0.6l-0.4-0.4c-0.3,0.3-0.5,0.4-0.8,0.4c-0.3,0-0.6-0.2-0.8-0.4l2.1-1.1
	c-0.2-0.6-0.7-1.1-1.3-1.1c-0.9,0-1.6,0.7-1.6,1.6C279.9,307.5,280.6,308.2,281.5,308.2z M280.5,306.6c0-0.6,0.4-1.1,1-1.1
	c0.2,0,0.4,0.1,0.5,0.2L280.5,306.6z M285.6,304.9h-0.8v-1l-0.6,0.1v0.9h-0.8v0.6h0.8v2.7l0.6-0.1v-2.6h0.8V304.9z M287.7,308.2
	c0.4,0,0.9-0.2,1.2-0.6l-0.4-0.4c-0.3,0.3-0.5,0.4-0.8,0.4c-0.3,0-0.6-0.2-0.8-0.4l2.1-1.1c-0.2-0.6-0.7-1.1-1.3-1.1
	c-0.9,0-1.6,0.7-1.6,1.6C286.1,307.5,286.8,308.2,287.7,308.2z M286.7,306.6c0-0.6,0.4-1.1,1-1.1c0.2,0,0.4,0.1,0.5,0.2L286.7,306.6
	z M290.9,306.8c0.3,0.1,0.6,0.2,0.6,0.5c0,0.2-0.2,0.4-0.6,0.4c-0.3,0-0.6-0.2-0.7-0.5l-0.6,0.1c0.2,0.6,0.7,1,1.3,1
	c0.4,0,1.2-0.2,1.2-1c0-0.5-0.3-0.8-1.1-1c-0.4-0.1-0.5-0.2-0.5-0.4c0-0.2,0.1-0.3,0.6-0.3c0.2,0,0.5,0.1,0.5,0.3c0,0.1,0,0.1,0,0.3
	l0.6-0.1c0-0.1,0-0.2,0-0.2c0-0.6-0.7-0.8-1-0.8c-0.5,0-1.2,0.2-1.2,0.9C289.8,306.4,290.4,306.6,290.9,306.8z"/>
<path class="st5" d="M354.6,307.1l-1.1-3.3L353,304l1.4,4.2l0.6-0.1l1.6-4.1l-0.6-0.2L354.6,307.1z M358.2,308.2
	c0.4,0,0.9-0.2,1.2-0.6l-0.4-0.4c-0.3,0.3-0.5,0.4-0.8,0.4c-0.3,0-0.6-0.2-0.8-0.4l2.1-1.1c-0.2-0.6-0.7-1.1-1.3-1.1
	c-0.9,0-1.6,0.7-1.6,1.6C356.7,307.5,357.4,308.2,358.2,308.2z M357.3,306.6c0-0.6,0.4-1.1,1-1.1c0.2,0,0.4,0.1,0.5,0.2L357.3,306.6
	z M362.9,304.9l-0.6,0.1v0.1c-0.2-0.1-0.3-0.1-0.5-0.1c-0.9,0-1.5,0.8-1.5,1.7c0,0.9,0.6,1.5,1.3,1.5c0.3,0,0.5-0.1,0.7-0.2
	c0,0.2-0.1,0.7-0.7,0.7c-0.3,0-0.6-0.1-0.8-0.1l-0.1,0.6c0.3,0.1,0.6,0.1,0.9,0.1c0.8,0,1.3-0.5,1.3-1.3L362.9,304.9z M362.3,305.7
	v0.8c0,0.8-0.4,1-0.8,1c-0.5,0-0.7-0.6-0.7-0.9c0-0.6,0.4-1.1,1-1.1C362,305.6,362.2,305.6,362.3,305.7z M366.4,305.2
	c-0.3-0.2-0.7-0.3-1-0.3c-1.1,0-1.5,1.2-1.5,1.9c0,0.8,0.5,1.4,1.3,1.4c0.3,0,0.5-0.1,0.7-0.2v0.3l0.6-0.1V305.2z M364.4,306.7
	c0-0.4,0.2-1.2,0.9-1.2c0.1,0,0.3,0,0.4,0.1l0,1.7c-0.2,0.1-0.4,0.3-0.7,0.3C364.6,307.5,364.4,307.1,364.4,306.7z M369.4,308.2
	l0.6-0.1l0-0.7c0-0.8,0-1.3-0.1-1.7c-0.1-0.5-0.4-0.7-0.9-0.7c-0.4,0-0.8,0.2-1.1,0.6v-0.6l-0.6,0.1v3.2l0.6-0.1l0-0.8
	c0-0.4,0.1-0.8,0.3-1.2c0.3-0.5,0.5-0.6,0.7-0.6c0.2,0,0.3,0.1,0.3,0.3c0.1,0.3,0.1,0.7,0.1,1.3V308.2z M372.2,308.2
	c0.8,0,1.5-0.8,1.5-1.7c0-0.8-0.6-1.5-1.3-1.5c-0.8,0-1.5,0.8-1.5,1.7C370.9,307.5,371.5,308.2,372.2,308.2z M372.4,305.5
	c0.4,0,0.7,0.4,0.7,1c0,0.6-0.4,1.1-0.9,1.1c-0.4,0-0.7-0.4-0.7-0.9C371.5,306.1,371.9,305.5,372.4,305.5z M375.7,306.8
	c0.3,0.1,0.6,0.2,0.6,0.5c0,0.2-0.2,0.4-0.6,0.4c-0.3,0-0.6-0.2-0.7-0.5l-0.6,0.1c0.2,0.6,0.7,1,1.3,1c0.4,0,1.2-0.2,1.2-1
	c0-0.5-0.3-0.8-1.1-1c-0.4-0.1-0.5-0.2-0.5-0.4c0-0.2,0.1-0.3,0.6-0.3c0.2,0,0.5,0.1,0.5,0.3c0,0.1,0,0.1,0,0.3l0.6-0.1
	c0-0.1,0-0.2,0-0.2c0-0.6-0.7-0.8-1-0.8c-0.5,0-1.2,0.2-1.2,0.9C374.7,306.4,375.2,306.6,375.7,306.8z"/>
<path class="st5" d="M308.9,338.5c-0.5-0.1-1-0.2-1.5-0.2c-0.6,0-1.4,0.1-2,0.3v1.2c0.5-0.2,1.3-0.4,1.9-0.4
	c-0.3,0.9-1.1,1.4-2.2,1.4c-1.5,0-2.3-1.4-2.3-2.8c0-0.9,0.7-2.8,2.5-2.8c1.2,0,1.9,0.7,2.2,1.8l1.1-0.2c-0.4-1.6-1.5-2.6-3.2-2.6
	c-2.1,0-3.6,2.1-3.6,3.9c0,2.2,1.4,3.9,3.4,3.9c2.3,0,3.1-1.6,3.3-2.4c0.2,0,0.3,0.1,0.5,0.1V338.5z M311.6,340.8v-2.3h3.8l0.3-1.1
	h-4.2v-2h4.3l0.2-1.1h-5.7v7.7h5.4l0.4-1.1H311.6z M317.7,341.9l4.8-0.4l-0.1-1.1l-3.6,0.3v-6.6l-1.1,0.2V341.9z M327.1,334.1
	l-1.1,0.2l-1.6,4.4l-0.9,0.2l0.2,1.1l0.3,0l-0.6,1.5l1,0.5l0.9-2.3l2.4-0.5l1,2.9l1-0.6L327.1,334.1z M325.6,338.4l0.9-2.4l0.7,2.1
	L325.6,338.4z M331.9,341.9l1.1-0.2v-6.5h2.4v-1.1h-5.8v1.1h2.3V341.9z M339.3,341.9c1.8,0,3.3-1.9,3.3-4.2c0-2-1.2-3.6-2.9-3.6
	c-1.8,0-3.3,1.9-3.3,4.2C336.4,340.3,337.6,341.9,339.3,341.9z M339.7,335.2c1.1,0,1.9,1.3,1.9,2.6c0,1.6-1.1,3-2.3,3
	c-1,0-1.8-1.1-1.8-2.5C337.5,336.6,338.5,335.2,339.7,335.2z"/>
<path class="st5" d="M270.7,350.1l0.4-2.2h-10.6v15.6l2.2-0.4v-6.4h6.9l0.4-2.3h-7.3v-4.2H270.7z M280,350.1l0.4-2.2h-7.6l-0.4,2.2
	h2.9v11h-2.5l-0.4,2.2h7.6l0.4-2.2h-2.8v-11H280z M292.3,348.1v11l-7.1-11.4l-2,0.6l0,15.1l2.2-0.4v-10.8l7,11.2l2.1-0.4v-15.2
	L292.3,348.1z M303.5,363.3c3.6,0,6.7-3.8,6.7-8.3c0-3.9-2.5-7.2-5.8-7.2c-3.6,0-6.7,3.8-6.7,8.3C297.7,360,300.1,363.3,303.5,363.3
	z M304.2,350c2.2,0,3.8,2.5,3.8,5.1c0,3.3-2.2,6.1-4.5,6.1c-2.1,0-3.6-2.3-3.6-5C299.8,352.7,301.9,350,304.2,350z M319.5,363.3
	c2.4,0,4.6-1.3,5.9-3.4l-1.6-1.6c-0.9,1.8-2.5,2.9-4.3,2.9c-2.4,0-4.4-2.1-4.4-4.6c0-2.6,2-6.6,4.5-6.6c1.3,0,2.2,0.5,2.7,1v0.8h2
	v-3.7h-2v0.3c-0.8-0.4-1.7-0.7-2.6-0.7c-4.1,0-6.8,5.1-6.8,8.8C313,360.4,316,363.3,319.5,363.3z M334.4,363.3
	c2.4,0,4.6-1.3,5.9-3.4l-1.6-1.6c-0.9,1.8-2.5,2.9-4.3,2.9c-2.4,0-4.4-2.1-4.4-4.6c0-2.6,2-6.6,4.5-6.6c1.3,0,2.2,0.5,2.7,1v0.8h2
	v-3.7h-2v0.3c-0.8-0.4-1.7-0.7-2.6-0.7c-4.1,0-6.8,5.1-6.8,8.8C327.9,360.4,330.9,363.3,334.4,363.3z M353.7,348.1v5.6l-8.3,1.2
	v-7.2l-2.2,0.4v15.4l2.2-0.8v-5.6l8.3-1.2v7.5l2.2-0.8v-15L353.7,348.1z M366.5,350.1l0.4-2.2h-7.6l-0.4,2.2h2.9v11h-2.5l-0.4,2.2
	h7.6l0.4-2.2h-2.8v-11H366.5z M375.4,363.3c3.6,0,6.7-3.8,6.7-8.3c0-3.9-2.5-7.2-5.8-7.2c-3.6,0-6.7,3.8-6.7,8.3
	C369.6,360,372,363.3,375.4,363.3z M376.2,350c2.2,0,3.8,2.5,3.8,5.1c0,3.3-2.2,6.1-4.5,6.1c-2.1,0-3.6-2.3-3.6-5
	C371.8,352.7,373.8,350,376.2,350z"/>
<path class="st5" d="M342.9,236.6c1.5,2.4,3.1,8.3,0.8,9.6c-2.3,1.3-4.5-2.8-6.2-5.3c-1.6-2.6-5-7.1-2.4-8.6
	C337.7,230.7,341.4,234.1,342.9,236.6z"/>
</svg>
