<?xml version="1.0" encoding="utf-8"?>
<!-- Generator: Adobe Illustrator 19.2.0, SVG Export Plug-In . SVG Version: 6.00 Build 0)  -->
<svg version="1.1" id="Camada_1" xmlns="http://www.w3.org/2000/svg" xmlns:xlink="http://www.w3.org/1999/xlink" x="0px" y="0px"
	 viewBox="0 0 635 635" style="enable-background:new 0 0 635 635;" xml:space="preserve">
<style type="text/css">
	.st0{fill:#FFFFFF;fill-opacity:0.3;}
	.st1{fill:#F9F3A9;}
	.st2{fill:none;stroke:#FFEEF1;stroke-width:3;}
	.st3{fill:#FED792;}
	.st4{fill:#ADEBDE;}
	.st5{fill:#FFEEF1;}
	.st6{fill:#C0FFE4;}
	.st7{fill:#FDBC6A;}
	.st8{fill:#E1A141;}
	.st9{fill:none;stroke:#E1A141;stroke-width:3;}
</style>
<circle class="st0" cx="317.2" cy="323" r="148.5"/>
<circle class="st1" cx="316.9" cy="322.7" r="110.8"/>
<circle class="st2" cx="317.2" cy="323" r="103.1"/>
<circle class="st3" cx="316.9" cy="322.7" r="95.4"/>
<circle class="st1" cx="255.2" cy="292.8" r="3.7"/>
<circle class="st1" cx="378.7" cy="292.8" r="3.7"/>
<rect x="210.2" y="331.2" class="st4" width="213.6" height="72.7"/>
<path class="st4" d="M210.5,331.2v72.9L202,404c-7.8-0.1-12.6-8.7-8.4-15.4c8-12.9,8-29.3,0-42.2c-4.1-6.7,0.7-15.3,8.5-15.3H210.5z
	"/>
<path class="st4" d="M423.9,331.2v72.9l8.5-0.1c7.8-0.1,12.6-8.7,8.4-15.4c-8-12.9-8-29.3,0-42.2c4.1-6.7-0.7-15.3-8.5-15.3H423.9z"
	/>
<circle class="st5" cx="360" cy="354.1" r="3.7"/>
<circle class="st5" cx="273.9" cy="354.1" r="3.7"/>
<circle class="st6" cx="316.9" cy="237.1" r="49.1"/>
<path class="st7" d="M277.3,269.4c-1.5-7,3.8-13.6,11-13.6h57.3c7.1,0,12.5,6.6,11,13.6l-13.9,64.8c-1.1,5.2-5.7,8.9-11,8.9h-29.6
	c-5.3,0-9.9-3.7-11-8.9L277.3,269.4z"/>
<path class="st8" d="M270.2,262.9c0-3.9,3.1-7,7-7h79.5c3.9,0,7,3.1,7,7V275c0,3.9-3.1,7-7,7h-79.5c-3.9,0-7-3.1-7-7V262.9z"/>
<path class="st9" d="M281.9,279.7l66.9,26.2"/>
<path class="st9" d="M352,279.7l-66.9,26.2"/>
<path class="st9" d="M281.9,261l70.6,27.6"/>
<path class="st9" d="M352,261l-70.6,27.6"/>
<path class="st9" d="M287.9,317.1l52.9,20.6"/>
<path class="st9" d="M345.9,317.1l-52.9,20.6"/>
<path class="st9" d="M292.1,335.8l16.8,6.5"/>
<path class="st9" d="M341.7,335.8l-16.8,6.5"/>
<path class="st9" d="M283.7,297.9l61.3,24.8"/>
<path class="st9" d="M350.1,297.9l-61.3,24.8"/>
<path class="st6" d="M368.8,254.1c0-6.6-5.3-11.9-11.8-11.9l-79.5-0.3c-6.8,0-12.3,5.5-12.2,12.2l0,1.1c0,11.2,14.2,16,21.1,7.2
	c3.3-4.2,9.3-5,13.6-1.9l5.3,3.9c7,5.1,16.5,5.2,23.5,0.2l6.2-4.5c4.2-3,10.1-2.1,13.2,2c6.7,8.7,20.6,4,20.7-7L368.8,254.1z"/>
<path class="st5" d="M238.4,308.2c1.2,0.3,1.3,0.7,1.3,1c0,0.6-0.6,1-1.3,1c-0.5,0-1.2-0.3-1.4-1l-1,0.1c0.3,1,1.3,1.7,2.4,1.7
	c1,0,2.3-0.6,2.3-1.9c0-0.9-0.7-1.5-2.1-1.9c-0.8-0.2-1.2-0.5-1.2-0.9c0-0.3,0.2-0.8,1.3-0.8c0.4,0,1.1,0.1,1.1,0.7
	c0,0,0,0.3-0.1,0.4l0.9-0.2c0-0.2,0-0.3,0-0.3c0-1.1-1.1-1.5-2-1.5c-1,0-2.3,0.3-2.3,1.7C236.4,307.4,237.5,307.9,238.4,308.2z
	 M243.8,311c1.2,0,2.2-1.1,2.2-2.5c0-1.2-0.8-2.2-1.9-2.2c-1.2,0-2.2,1.2-2.2,2.5C241.9,310.1,242.7,311,243.8,311z M244,307.2
	c0.6,0,1.1,0.6,1.1,1.4c0,0.9-0.6,1.6-1.3,1.6c-0.6,0-1-0.6-1-1.4C242.8,308,243.3,307.2,244,307.2z M250.3,307.2
	c0-0.4-0.4-0.8-0.9-0.8c-0.5,0-0.9,0.3-1.2,0.6v-0.7l-0.9,0.2v4.6l0.9-0.2v-2.2c0-0.7,0.6-1.4,1.1-1.4c0.1,0,0.2,0.1,0.2,0.2v0.4
	l0.9-0.1V307.2z M254.8,306.6l-0.8-0.3l-1.3,3.3l-1.2-3.3l-0.8,0.3l1.7,4.4l0.8-0.2L254.8,306.6z M257.8,311c0.6,0,1.2-0.3,1.8-0.9
	l-0.6-0.6c-0.4,0.4-0.8,0.6-1.1,0.6c-0.5,0-0.9-0.3-1.2-0.6l3-1.7c-0.2-0.9-1-1.6-1.8-1.6c-1.3,0-2.3,1.1-2.3,2.3
	C255.5,310,256.5,311,257.8,311z M256.4,308.7c0-0.8,0.6-1.5,1.4-1.5c0.2,0,0.5,0.1,0.7,0.3L256.4,308.7z M263.6,306.3h-1.2v-1.5
	l-0.9,0.1v1.3h-1.2v0.9h1.2v3.8l0.9-0.2v-3.7h1.2V306.3z M266.7,311c0.6,0,1.2-0.3,1.8-0.9l-0.6-0.6c-0.4,0.4-0.8,0.6-1.1,0.6
	c-0.5,0-0.9-0.3-1.2-0.6l3-1.7c-0.2-0.9-1-1.6-1.8-1.6c-1.3,0-2.3,1.1-2.3,2.3C264.4,310,265.4,311,266.7,311z M265.3,308.7
	c0-0.8,0.6-1.5,1.4-1.5c0.2,0,0.5,0.1,0.7,0.3L265.3,308.7z M271.3,309c0.5,0.1,0.9,0.3,0.9,0.7c0,0.3-0.3,0.5-0.8,0.5
	c-0.4,0-0.8-0.2-1-0.7l-0.9,0.1c0.3,0.9,1,1.4,1.8,1.4c0.6,0,1.7-0.3,1.7-1.4c0-0.7-0.5-1.2-1.5-1.4c-0.5-0.1-0.8-0.3-0.8-0.5
	c0-0.2,0.2-0.5,0.8-0.5c0.3,0,0.7,0.1,0.7,0.4c0,0.1,0,0.2-0.1,0.4l0.9-0.2c0-0.2,0-0.3,0-0.3c0-0.9-1-1.1-1.5-1.1
	c-0.7,0-1.7,0.2-1.7,1.3C269.8,308.5,270.6,308.8,271.3,309z"/>
<path class="st5" d="M363.3,309.4l-1.5-4.8l-0.9,0.3l2,6.1l0.9-0.1l2.3-6l-0.9-0.4L363.3,309.4z M368.5,311c0.6,0,1.2-0.3,1.8-0.9
	l-0.6-0.6c-0.4,0.4-0.8,0.6-1.1,0.6c-0.5,0-0.9-0.3-1.2-0.6l3-1.7c-0.2-0.9-1-1.6-1.8-1.6c-1.3,0-2.3,1.1-2.3,2.3
	C366.3,310,367.3,311,368.5,311z M367.1,308.7c0-0.8,0.6-1.5,1.4-1.5c0.2,0,0.5,0.1,0.7,0.3L367.1,308.7z M375.3,306.3l-0.9,0.1v0.1
	c-0.2-0.1-0.4-0.1-0.7-0.1c-1.3,0-2.2,1.2-2.2,2.4c0,1.3,0.8,2.2,1.9,2.2c0.4,0,0.7-0.1,1-0.3c0,0.3-0.1,1.1-1,1.1
	c-0.4,0-0.8-0.1-1.1-0.1l-0.2,0.9c0.4,0.1,0.9,0.2,1.3,0.2c1.2,0,1.9-0.7,1.9-1.9L375.3,306.3z M374.4,307.4v1.1
	c0,1.2-0.6,1.5-1.1,1.5c-0.7,0-1-0.8-1-1.3c0-0.8,0.6-1.5,1.4-1.5C374,307.2,374.2,307.3,374.4,307.4z M380.3,306.7
	c-0.5-0.2-1-0.4-1.5-0.4c-1.6,0-2.2,1.7-2.2,2.7c0,1.2,0.8,2.1,1.8,2.1c0.4,0,0.7-0.1,1-0.3v0.4l0.9-0.2V306.7z M377.5,308.9
	c0-0.6,0.4-1.8,1.4-1.8c0.2,0,0.4,0,0.6,0.1l0,2.4c-0.2,0.2-0.6,0.4-1,0.4C377.7,310.1,377.5,309.4,377.5,308.9z M384.6,311.1
	l0.9-0.2l0-1c0-1.1,0-1.9-0.1-2.4c-0.2-0.7-0.6-1.1-1.3-1.1c-0.6,0-1.2,0.3-1.5,0.9v-0.9l-0.9,0.2v4.6l0.9-0.2l0-1.1
	c0-0.5,0.2-1.2,0.4-1.7c0.4-0.7,0.8-0.8,1.1-0.8c0.2,0,0.4,0.2,0.5,0.5c0.1,0.4,0.1,1,0.1,1.8V311.1z M388.7,311
	c1.2,0,2.2-1.1,2.2-2.5c0-1.2-0.8-2.2-1.9-2.2c-1.2,0-2.2,1.2-2.2,2.5C386.8,310.1,387.6,311,388.7,311z M388.9,307.2
	c0.6,0,1.1,0.6,1.1,1.4c0,0.9-0.6,1.6-1.3,1.6c-0.6,0-1-0.6-1-1.4C387.7,308,388.3,307.2,388.9,307.2z M393.7,309
	c0.5,0.1,0.9,0.3,0.9,0.7c0,0.3-0.3,0.5-0.8,0.5c-0.4,0-0.8-0.2-1-0.7l-0.9,0.1c0.3,0.9,1,1.4,1.8,1.4c0.6,0,1.7-0.3,1.7-1.4
	c0-0.7-0.5-1.2-1.5-1.4c-0.5-0.1-0.8-0.3-0.8-0.5c0-0.2,0.2-0.5,0.8-0.5c0.3,0,0.7,0.1,0.7,0.4c0,0.1,0,0.2-0.1,0.4l0.9-0.2
	c0-0.2,0-0.3,0-0.3c0-0.9-1-1.1-1.5-1.1c-0.7,0-1.7,0.2-1.7,1.3C392.2,308.5,393,308.8,393.7,309z"/>
<path class="st5" d="M297.3,354.8c-0.7-0.2-1.5-0.3-2.1-0.3c-0.9,0-2,0.2-2.9,0.5v1.7c0.8-0.3,1.9-0.6,2.7-0.6c-0.5,1.3-1.6,2-3.1,2
	c-2.2,0-3.3-2-3.3-4c0-1.4,1.1-4,3.6-4c1.7,0,2.7,1,3.1,2.6l1.6-0.3c-0.6-2.3-2.2-3.8-4.7-3.8c-3.1,0-5.2,3-5.2,5.6
	c0,3.1,2,5.6,4.9,5.6c3.4,0,4.4-2.4,4.7-3.5c0.2,0,0.5,0.1,0.7,0.2V354.8z M301.3,358.1v-3.4h5.5l0.5-1.6h-6v-2.9h6.3l0.3-1.6h-8.2
	v11.1h7.8l0.6-1.6H301.3z M310.1,359.7l6.9-0.5l-0.1-1.6l-5.2,0.4v-9.5l-1.6,0.3V359.7z M323.6,348.5l-1.6,0.3l-2.4,6.3l-1.3,0.2
	l0.3,1.6l0.4,0l-0.8,2.2l1.4,0.7l1.2-3.3l3.5-0.7l1.4,4.1l1.4-0.9L323.6,348.5z M321.5,354.7l1.3-3.5l1,3L321.5,354.7z M330.5,359.8
	l1.6-0.3v-9.3h3.5v-1.6h-8.4v1.6h3.3V359.8z M341.2,359.7c2.6,0,4.8-2.8,4.8-6c0-2.8-1.8-5.2-4.2-5.2c-2.6,0-4.8,2.8-4.8,6
	C337,357.3,338.8,359.7,341.2,359.7z M341.8,350.1c1.6,0,2.7,1.8,2.7,3.7c0,2.4-1.6,4.4-3.3,4.4c-1.5,0-2.6-1.7-2.6-3.6
	C338.6,352.1,340.1,350.1,341.8,350.1z"/>
<path class="st5" d="M242.2,371.5l0.6-3.2h-15.3v22.5l3.2-0.6v-9.3h9.9l0.6-3.3h-10.5v-6.1H242.2z M255.6,371.5l0.6-3.2h-11
	l-0.6,3.2h4.2v15.8h-3.7l-0.6,3.2h10.9l0.6-3.2h-4.1v-15.8H255.6z M273.4,368.7v15.8l-10.3-16.4l-2.9,0.8l0,21.7l3.1-0.6v-15.5
	l10.1,16.1l3.1-0.6v-21.9L273.4,368.7z M289.5,390.6c5.2,0,9.7-5.5,9.7-12c0-5.7-3.6-10.4-8.4-10.4c-5.1,0-9.6,5.5-9.6,12
	C281.1,385.8,284.6,390.6,289.5,390.6z M290.6,371.3c3.2,0,5.4,3.7,5.4,7.4c0,4.7-3.1,8.8-6.5,8.8c-3,0-5.2-3.3-5.2-7.3
	C284.3,375.3,287.2,371.3,290.6,371.3z M312.7,390.6c3.4,0,6.6-1.9,8.5-4.9l-2.4-2.4c-1.3,2.7-3.6,4.1-6.2,4.1c-3.5,0-6.3-3-6.3-6.6
	c0-3.8,2.9-9.5,6.5-9.5c1.9,0,3.2,0.8,3.9,1.5v1.2h2.9v-5.3h-2.9v0.5c-1.1-0.5-2.4-1-3.7-1c-5.9,0-9.8,7.4-9.8,12.7
	C303.3,386.4,307.6,390.6,312.7,390.6z M334.2,390.6c3.4,0,6.6-1.9,8.5-4.9l-2.4-2.4c-1.3,2.7-3.6,4.1-6.2,4.1c-3.5,0-6.3-3-6.3-6.6
	c0-3.8,2.9-9.5,6.5-9.5c1.9,0,3.2,0.8,3.9,1.5v1.2h2.9v-5.3h-2.9v0.5c-1.1-0.5-2.4-1-3.7-1c-5.9,0-9.8,7.4-9.8,12.7
	C324.8,386.4,329.1,390.6,334.2,390.6z M361.9,368.7v8.1l-11.9,1.7v-10.3l-3.2,0.6v22.2l3.2-1.1v-8l11.9-1.7v10.8l3.2-1.1v-21.6
	L361.9,368.7z M380.5,371.5l0.6-3.2h-11l-0.6,3.2h4.2v15.8h-3.7l-0.6,3.2h10.9l0.6-3.2H377v-15.8H380.5z M393.3,390.6
	c5.2,0,9.7-5.5,9.7-12c0-5.7-3.6-10.4-8.4-10.4c-5.1,0-9.6,5.5-9.6,12C385,385.8,388.4,390.6,393.3,390.6z M394.4,371.3
	c3.2,0,5.4,3.7,5.4,7.4c0,4.7-3.1,8.8-6.5,8.8c-3,0-5.2-3.3-5.2-7.3C388.1,375.3,391,371.3,394.4,371.3z"/>
<path class="st5" d="M346.4,207.7c2.1,3.5,4.4,11.9,1.2,13.8c-3.3,1.9-6.5-4-8.9-7.7s-7.2-10.3-3.5-12.4
	C338.9,199.3,344.3,204.2,346.4,207.7z"/>
</svg>
