<svg width="994" height="994" viewBox="0 0 994 994" fill="none" xmlns="http://www.w3.org/2000/svg">
<rect y="497" width="702.864" height="702.864" transform="rotate(-45 0 497)" fill="#A46D1A"/>
<rect x="29.8787" y="496.382" width="659.736" height="659.736" transform="rotate(-45 29.8787 496.382)" fill="#E1A141"/>
<rect x="48" y="496.5" width="634.275" height="634.275" transform="rotate(-45 48 496.5)" fill="#A46D1A"/>
<circle cx="497" cy="497" r="237" fill="#F9F3A9"/>
<circle cx="497.5" cy="497.5" r="220.5" stroke="#FFEEF1" stroke-width="3"/>
<circle cx="497" cy="497" r="204" fill="#FED792"/>
<circle cx="365" cy="433" r="8" fill="#F9F3A9"/>
<circle cx="629" cy="433" r="8" fill="#F9F3A9"/>
<rect x="268.888" y="515.073" width="456.742" height="156" fill="#ADEBDE"/>
<path d="M277 515V671L259.196 670.841C242.41 670.69 232.276 652.182 241.076 637.887V637.887C258.072 610.278 258.143 575.335 241.147 547.726V547.726C232.34 533.421 242.632 515 259.431 515H277Z" fill="#ADEBDE"/>
<path d="M718 515V671L735.804 670.841C752.59 670.69 762.724 652.182 753.924 637.887C736.928 610.278 736.857 575.335 753.853 547.726C762.66 533.421 752.368 515 735.569 515H718Z" fill="#ADEBDE"/>
<circle cx="589" cy="564" r="8" fill="#FFEEF1"/>
<circle cx="405" cy="564" r="8" fill="#FFEEF1"/>
<circle cx="497" cy="314" r="105" fill="#C0FFE4"/>
<path d="M412.227 383.033C409.022 368.092 420.412 354 435.693 354H558.307C573.588 354 584.978 368.092 581.773 383.033L552.068 521.533C549.695 532.597 539.917 540.5 528.602 540.5H465.398C454.083 540.5 444.305 532.597 441.932 521.533L412.227 383.033Z" fill="#FDBC6A"/>
<path d="M397 369C397 360.716 403.716 354 412 354H582C590.284 354 597 360.716 597 369V395C597 403.284 590.284 410 582 410H412C403.716 410 397 403.284 397 395V369Z" fill="#E1A141"/>
<path d="M422 405L565 461" stroke="#E1A141" stroke-width="3"/>
<path d="M572 405L429 461" stroke="#E1A141" stroke-width="3"/>
<path d="M422 365L573 424" stroke="#E1A141" stroke-width="3"/>
<path d="M572 365L421 424" stroke="#E1A141" stroke-width="3"/>
<path d="M435 485L548 529" stroke="#E1A141" stroke-width="3"/>
<path d="M559 485L446 529" stroke="#E1A141" stroke-width="3"/>
<path d="M444 525L480 539" stroke="#E1A141" stroke-width="3"/>
<path d="M550 525L514 539" stroke="#E1A141" stroke-width="3"/>
<path d="M426 444L557 497" stroke="#E1A141" stroke-width="3"/>
<path d="M568 444L437 497" stroke="#E1A141" stroke-width="3"/>
<path d="M607.889 350.292C607.902 336.282 596.579 324.9 582.568 324.84L412.57 324.112C398.115 324.05 386.375 335.772 386.415 350.227L386.421 352.639C386.487 376.576 416.747 386.954 431.49 368.097C438.496 359.135 451.364 357.378 460.516 364.134L471.95 372.575C486.85 383.575 507.14 383.727 522.203 372.951L535.514 363.428C544.517 356.988 557.005 358.853 563.733 367.642C578.028 386.316 607.866 376.222 607.887 352.704L607.889 350.292Z" fill="#C0FFE4"/>
<path d="M329.04 465.84C331.66 466.54 331.84 467.42 331.84 468.02C331.84 469.28 330.62 470.1 329.12 470.1C327.96 470.1 326.56 469.44 326.04 468L323.96 468.32C324.7 470.54 326.74 472.02 329.14 472.02C331.24 472.02 333.96 470.74 333.96 468C333.96 466.04 332.5 464.7 329.54 463.88C327.8 463.4 326.9 462.82 326.9 461.96C326.9 461.26 327.34 460.24 329.6 460.24C330.5 460.24 332 460.56 332 461.74C332 461.84 331.98 462.32 331.84 462.6L333.82 462.24C333.9 461.78 333.9 461.64 333.9 461.5C333.9 459.08 331.48 458.38 329.6 458.38C327.5 458.38 324.78 459.06 324.78 462.08C324.78 464.18 327.06 465.32 329.04 465.84ZM340.58 472C343.14 472 345.28 469.56 345.28 466.64C345.28 464.14 343.48 462 341.14 462C338.6 462 336.46 464.46 336.46 467.36C336.46 469.9 338.24 472 340.58 472ZM341.06 463.78C342.32 463.78 343.32 465.14 343.32 466.72C343.32 468.6 342 470.22 340.58 470.22C339.28 470.22 338.4 468.88 338.4 467.32C338.4 465.44 339.62 463.78 341.06 463.78ZM354.451 463.7C354.451 462.74 353.611 461.96 352.491 461.96C351.411 461.96 350.491 462.58 349.831 463.3V461.86L347.891 462.22V472.1L349.831 471.76V466.96C349.831 465.44 351.071 463.86 352.171 463.86C352.431 463.86 352.531 464.1 352.531 464.26V465.2L354.451 464.88V463.7ZM364.246 462.54L362.446 461.86L359.766 468.88L357.106 461.86L355.306 462.58L359.026 472.06L360.666 471.7L364.246 462.54ZM370.519 472C371.799 472 373.159 471.34 374.299 470.14L372.959 468.88C372.179 469.7 371.339 470.16 370.519 470.16C369.539 470.16 368.599 469.56 368.059 468.84L374.419 465.3C373.899 463.48 372.339 461.96 370.519 461.96C367.799 461.96 365.659 464.24 365.659 466.98C365.659 469.74 367.819 472 370.519 472ZM367.499 467.06C367.499 465.32 368.719 463.8 370.519 463.8C371.039 463.8 371.619 464.08 371.999 464.5L367.499 467.06ZM383.054 461.96H380.554V458.8L378.594 459.12V461.96H376.094V463.88H378.594V472.1L380.554 471.76V463.88H383.054V461.96ZM389.562 472C390.842 472 392.202 471.34 393.342 470.14L392.002 468.88C391.222 469.7 390.382 470.16 389.562 470.16C388.582 470.16 387.642 469.56 387.102 468.84L393.462 465.3C392.942 463.48 391.382 461.96 389.562 461.96C386.842 461.96 384.702 464.24 384.702 466.98C384.702 469.74 386.862 472 389.562 472ZM386.542 467.06C386.542 465.32 387.762 463.8 389.562 463.8C390.082 463.8 390.662 464.08 391.042 464.5L386.542 467.06ZM399.397 467.62C400.417 467.9 401.237 468.28 401.237 469.08C401.237 469.68 400.577 470.18 399.517 470.18C398.677 470.18 397.797 469.68 397.477 468.66L395.597 468.98C396.137 470.9 397.817 472 399.517 472C400.697 472 403.157 471.34 403.157 468.9C403.157 467.42 402.077 466.42 399.857 465.8C398.737 465.48 398.177 465.2 398.177 464.68C398.177 464.18 398.537 463.68 399.877 463.66C400.517 463.66 401.317 463.88 401.317 464.56C401.317 464.72 401.317 465.02 401.177 465.42L403.037 465.06C403.117 464.62 403.117 464.48 403.117 464.32C403.117 462.32 401.077 461.9 399.877 461.9C398.337 461.9 396.217 462.38 396.217 464.7C396.217 466.5 397.897 467.22 399.397 467.62Z" fill="#FFEEF1"/>
<path d="M596.22 468.52L592.92 458.26L591.04 458.96L595.24 472.06L597.1 471.76L601.92 459L600.08 458.24L596.22 468.52ZM607.347 472C608.627 472 609.987 471.34 611.127 470.14L609.787 468.88C609.007 469.7 608.167 470.16 607.347 470.16C606.367 470.16 605.427 469.56 604.887 468.84L611.247 465.3C610.727 463.48 609.167 461.96 607.347 461.96C604.627 461.96 602.487 464.24 602.487 466.98C602.487 469.74 604.647 472 607.347 472ZM604.327 467.06C604.327 465.32 605.547 463.8 607.347 463.8C607.867 463.8 608.447 464.08 608.827 464.5L604.327 467.06ZM621.862 461.76L619.902 462.06V462.26C619.422 462.06 618.962 461.98 618.302 461.98C615.422 461.98 613.542 464.54 613.542 467.1C613.542 469.84 615.282 471.8 617.602 471.8C618.382 471.8 619.102 471.62 619.702 471.16C619.682 471.82 619.422 473.44 617.502 473.44C616.702 473.44 615.722 473.28 615.082 473.12L614.682 475C615.482 475.18 616.622 475.36 617.502 475.36C620.082 475.36 621.582 473.88 621.642 471.22L621.862 461.76ZM619.822 464.28V466.68C619.822 469.28 618.562 469.9 617.502 469.92C615.982 469.92 615.342 468.22 615.342 467.14C615.342 465.36 616.642 463.88 618.402 463.88C618.922 463.88 619.462 464.06 619.822 464.28ZM632.459 462.68C631.439 462.16 630.319 461.76 629.239 461.76C625.759 461.76 624.479 465.46 624.479 467.48C624.479 470.1 626.119 471.88 628.339 471.88C629.159 471.88 629.899 471.64 630.539 471.32V472.1L632.459 471.74V462.68ZM626.419 467.46C626.419 466.08 627.179 463.66 629.339 463.66C629.719 463.66 630.239 463.76 630.579 463.92L630.499 469.14C630.019 469.48 629.119 469.96 628.319 469.96C626.939 469.94 626.419 468.56 626.419 467.46ZM641.765 472.1L643.665 471.7L643.645 469.46C643.625 467.02 643.625 465.48 643.345 464.28C642.965 462.74 642.045 461.98 640.585 461.98C639.265 461.98 638.085 462.72 637.305 463.84V461.86L635.385 462.22V472.1L637.285 471.74L637.305 469.3C637.305 468.14 637.705 466.68 638.245 465.62C639.085 464.12 639.905 463.88 640.545 463.88C641.045 463.88 641.385 464.32 641.545 464.96C641.765 465.82 641.765 467.1 641.765 468.86V472.1ZM650.455 472C653.015 472 655.155 469.56 655.155 466.64C655.155 464.14 653.355 462 651.015 462C648.475 462 646.335 464.46 646.335 467.36C646.335 469.9 648.115 472 650.455 472ZM650.935 463.78C652.195 463.78 653.195 465.14 653.195 466.72C653.195 468.6 651.875 470.22 650.455 470.22C649.155 470.22 648.275 468.88 648.275 467.32C648.275 465.44 649.495 463.78 650.935 463.78ZM661.186 467.62C662.206 467.9 663.026 468.28 663.026 469.08C663.026 469.68 662.366 470.18 661.306 470.18C660.466 470.18 659.586 469.68 659.266 468.66L657.386 468.98C657.926 470.9 659.606 472 661.306 472C662.486 472 664.946 471.34 664.946 468.9C664.946 467.42 663.866 466.42 661.646 465.8C660.526 465.48 659.966 465.2 659.966 464.68C659.966 464.18 660.326 463.68 661.666 463.66C662.306 463.66 663.106 463.88 663.106 464.56C663.106 464.72 663.106 465.02 662.966 465.42L664.826 465.06C664.906 464.62 664.906 464.48 664.906 464.32C664.906 462.32 662.866 461.9 661.666 461.9C660.126 461.9 658.006 462.38 658.006 464.7C658.006 466.5 659.686 467.22 661.186 467.62Z" fill="#FFEEF1"/>
<path d="M455.01 565.535C453.435 565.15 451.86 564.94 450.495 564.94C448.535 564.94 446.295 565.29 444.335 565.92V569.63C446.015 568.93 448.325 568.37 450.145 568.3C449.095 571.065 446.785 572.675 443.46 572.675C438.84 572.675 436.425 568.3 436.425 564.065C436.425 561.16 438.7 555.49 444.09 555.49C447.695 555.49 449.935 557.66 450.775 560.95L454.1 560.285C452.91 555.455 449.445 552.13 444.09 552.13C437.475 552.13 433.03 558.5 433.03 564.065C433.03 570.785 437.335 576.07 443.46 576.07C450.635 576.07 452.91 571.03 453.575 568.65C454.1 568.755 454.555 568.93 455.01 569.105V565.535ZM463.534 572.535V565.36H475.329L476.344 561.93H463.534V555.63H476.939L477.534 552.165H460.069V576H476.659L477.884 572.535H463.534ZM482.284 576.07L497.019 574.985L496.844 571.52L485.749 572.36V552.095L482.284 552.725V576.07ZM511.288 552.06L507.858 552.69L502.818 566.235L500.018 566.76L500.613 570.12L501.418 570.015L499.633 574.74L502.678 576.28L505.303 569.175L512.758 567.6L515.698 576.42L518.638 574.425L511.288 552.06ZM506.703 565.395L509.538 557.87L511.708 564.31L506.703 565.395ZM526.088 576.175L529.588 575.58V555.63H537.078V552.165H519.123V555.63H526.088V576.175ZM548.902 576.07C554.432 576.07 559.227 570.19 559.227 563.225C559.227 557.17 555.412 552.13 550.267 552.13C544.772 552.13 539.977 558.01 539.977 564.975C539.977 570.96 543.687 576.07 548.902 576.07ZM550.057 555.455C553.452 555.455 555.867 559.375 555.867 563.365C555.867 568.44 552.507 572.745 548.902 572.745C545.682 572.745 543.337 569.21 543.337 564.975C543.337 559.69 546.452 555.455 550.057 555.455Z" fill="#FFEEF1"/>
<path d="M337.21 601.26L338.47 594.33H305.85V642.35L312.78 641.16V621.35H333.99L335.18 614.35H312.78V601.26H337.21ZM365.928 601.26L367.188 594.33H343.738L342.548 601.26H351.578V635.07H343.738L342.548 642H365.928L367.188 635.07H358.508V601.26H365.928ZM404 595.24V629.12L382.02 594.05L375.86 595.8L375.93 642.28L382.65 640.95V607.77L404.14 642.21L410.72 640.88V593.98L404 595.24ZM438.274 642.14C449.334 642.14 458.924 630.38 458.924 616.45C458.924 604.34 451.294 594.26 441.004 594.26C430.014 594.26 420.424 606.02 420.424 619.95C420.424 631.92 427.844 642.14 438.274 642.14ZM440.584 600.91C447.374 600.91 452.204 608.75 452.204 616.73C452.204 626.88 445.484 635.49 438.274 635.49C431.834 635.49 427.144 628.42 427.144 619.95C427.144 609.38 433.374 600.91 440.584 600.91ZM487.872 642.07C495.222 642.07 502.082 638.08 506.072 631.57L501.032 626.53C498.162 632.2 493.402 635.35 487.872 635.35C480.452 635.35 474.432 628.98 474.432 621.28C474.432 613.23 480.662 601.05 488.292 601.05C492.422 601.05 495.082 602.73 496.622 604.27V606.86H502.852V595.45H496.622V596.43C494.242 595.31 491.442 594.33 488.642 594.33C476.112 594.33 467.782 610.22 467.782 621.42C467.782 633.11 476.952 642.07 487.872 642.07ZM533.878 642.07C541.228 642.07 548.088 638.08 552.078 631.57L547.038 626.53C544.168 632.2 539.408 635.35 533.878 635.35C526.458 635.35 520.438 628.98 520.438 621.28C520.438 613.23 526.668 601.05 534.298 601.05C538.428 601.05 541.088 602.73 542.628 604.27V606.86H548.858V595.45H542.628V596.43C540.248 595.31 537.448 594.33 534.648 594.33C522.118 594.33 513.788 610.22 513.788 621.42C513.788 633.11 522.958 642.07 533.878 642.07ZM593.184 595.24V612.46L567.704 616.1V593.98L560.774 595.24V642.63L567.704 640.25V623.1L593.184 619.46V642.63L600.114 640.25V593.98L593.184 595.24ZM632.803 601.26L634.063 594.33H610.613L609.423 601.26H618.453V635.07H610.613L609.423 642H632.803L634.063 635.07H625.383V601.26H632.803ZM660.305 642.14C671.365 642.14 680.955 630.38 680.955 616.45C680.955 604.34 673.325 594.26 663.035 594.26C652.045 594.26 642.455 606.02 642.455 619.95C642.455 631.92 649.875 642.14 660.305 642.14ZM662.615 600.91C669.405 600.91 674.235 608.75 674.235 616.73C674.235 626.88 667.515 635.49 660.305 635.49C653.865 635.49 649.175 628.42 649.175 619.95C649.175 609.38 655.405 600.91 662.615 600.91Z" fill="#FFEEF1"/>
<path d="M559.974 251C564.474 258.5 569.474 276.5 562.474 280.5C555.474 284.5 548.474 272 543.474 264C538.474 256 527.974 242 535.974 237.5C543.974 233 555.474 243.5 559.974 251Z" fill="#FFEEF1"/>
</svg>
