<svg width="635" height="635" viewBox="0 0 635 635" fill="none" xmlns="http://www.w3.org/2000/svg">
<circle cx="317.5" cy="317.5" r="317.5" fill="white" fill-opacity="0.3"/>
<circle cx="317" cy="317" r="237" fill="#F9F3A9"/>
<circle cx="317.5" cy="317.5" r="220.5" stroke="#FFEEF1" stroke-width="3"/>
<circle cx="317" cy="317" r="204" fill="#FED792"/>
<circle cx="185" cy="253" r="8" fill="#F9F3A9"/>
<circle cx="449" cy="253" r="8" fill="#F9F3A9"/>
<rect x="88.8882" y="335.073" width="456.742" height="155.426" fill="#ADEBDE"/>
<path d="M89.37 335V490.927L71.1791 490.765C54.433 490.616 44.3452 472.126 53.1694 457.893C70.2842 430.287 70.3554 395.254 53.2405 367.648C44.4099 353.404 54.654 335 71.4129 335H89.37Z" fill="#ADEBDE"/>
<path d="M545.63 335.073V491L563.821 490.838C580.567 490.689 590.655 472.199 581.831 457.966C564.716 430.36 564.645 395.327 581.759 367.721C590.59 353.477 580.346 335.073 563.587 335.073H545.63Z" fill="#ADEBDE"/>
<circle cx="409" cy="384" r="8" fill="#FFEEF1"/>
<circle cx="225" cy="384" r="8" fill="#FFEEF1"/>
<circle cx="317" cy="134" r="105" fill="#C0FFE4"/>
<path d="M232.227 203.033C229.022 188.092 240.412 174 255.693 174H378.307C393.588 174 404.978 188.092 401.773 203.033L372.068 341.533C369.695 352.597 359.917 360.5 348.602 360.5H285.398C274.083 360.5 264.305 352.597 261.932 341.533L232.227 203.033Z" fill="#FDBC6A"/>
<path d="M217 189C217 180.716 223.716 174 232 174H402C410.284 174 417 180.716 417 189V215C417 223.284 410.284 230 402 230H232C223.716 230 217 223.284 217 215V189Z" fill="#E1A141"/>
<path d="M242 225L385 281" stroke="#E1A141" stroke-width="3"/>
<path d="M392 225L249 281" stroke="#E1A141" stroke-width="3"/>
<path d="M242 185L393 244" stroke="#E1A141" stroke-width="3"/>
<path d="M392 185L241 244" stroke="#E1A141" stroke-width="3"/>
<path d="M255 305L368 349" stroke="#E1A141" stroke-width="3"/>
<path d="M379 305L266 349" stroke="#E1A141" stroke-width="3"/>
<path d="M264 345L300 359" stroke="#E1A141" stroke-width="3"/>
<path d="M370 345L334 359" stroke="#E1A141" stroke-width="3"/>
<path d="M246 264L377 317" stroke="#E1A141" stroke-width="3"/>
<path d="M388 264L257 317" stroke="#E1A141" stroke-width="3"/>
<path d="M427.889 170.292C427.902 156.282 416.579 144.9 402.568 144.84L232.57 144.112C218.115 144.05 206.375 155.772 206.415 170.227L206.421 172.639C206.487 196.576 236.747 206.954 251.49 188.097C258.496 179.135 271.364 177.378 280.516 184.134L291.95 192.575C306.85 203.575 327.14 203.727 342.203 192.951L355.514 183.428C364.517 176.988 377.005 178.853 383.733 187.642C398.028 206.316 427.866 196.222 427.887 172.704L427.889 170.292Z" fill="#C0FFE4"/>
<path d="M149.04 285.84C151.66 286.54 151.84 287.42 151.84 288.02C151.84 289.28 150.62 290.1 149.12 290.1C147.96 290.1 146.56 289.44 146.04 288L143.96 288.32C144.7 290.54 146.74 292.02 149.14 292.02C151.24 292.02 153.96 290.74 153.96 288C153.96 286.04 152.5 284.7 149.54 283.88C147.8 283.4 146.9 282.82 146.9 281.96C146.9 281.26 147.34 280.24 149.6 280.24C150.5 280.24 152 280.56 152 281.74C152 281.84 151.98 282.32 151.84 282.6L153.82 282.24C153.9 281.78 153.9 281.64 153.9 281.5C153.9 279.08 151.48 278.38 149.6 278.38C147.5 278.38 144.78 279.06 144.78 282.08C144.78 284.18 147.06 285.32 149.04 285.84ZM160.58 292C163.14 292 165.28 289.56 165.28 286.64C165.28 284.14 163.48 282 161.14 282C158.6 282 156.46 284.46 156.46 287.36C156.46 289.9 158.24 292 160.58 292ZM161.06 283.78C162.32 283.78 163.32 285.14 163.32 286.72C163.32 288.6 162 290.22 160.58 290.22C159.28 290.22 158.4 288.88 158.4 287.32C158.4 285.44 159.62 283.78 161.06 283.78ZM174.451 283.7C174.451 282.74 173.611 281.96 172.491 281.96C171.411 281.96 170.491 282.58 169.831 283.3V281.86L167.891 282.22V292.1L169.831 291.76V286.96C169.831 285.44 171.071 283.86 172.171 283.86C172.431 283.86 172.531 284.1 172.531 284.26V285.2L174.451 284.88V283.7ZM184.246 282.54L182.446 281.86L179.766 288.88L177.106 281.86L175.306 282.58L179.026 292.06L180.666 291.7L184.246 282.54ZM190.519 292C191.799 292 193.159 291.34 194.299 290.14L192.959 288.88C192.179 289.7 191.339 290.16 190.519 290.16C189.539 290.16 188.599 289.56 188.059 288.84L194.419 285.3C193.899 283.48 192.339 281.96 190.519 281.96C187.799 281.96 185.659 284.24 185.659 286.98C185.659 289.74 187.819 292 190.519 292ZM187.499 287.06C187.499 285.32 188.719 283.8 190.519 283.8C191.039 283.8 191.619 284.08 191.999 284.5L187.499 287.06ZM203.054 281.96H200.554V278.8L198.594 279.12V281.96H196.094V283.88H198.594V292.1L200.554 291.76V283.88H203.054V281.96ZM209.562 292C210.842 292 212.202 291.34 213.342 290.14L212.002 288.88C211.222 289.7 210.382 290.16 209.562 290.16C208.582 290.16 207.642 289.56 207.102 288.84L213.462 285.3C212.942 283.48 211.382 281.96 209.562 281.96C206.842 281.96 204.702 284.24 204.702 286.98C204.702 289.74 206.862 292 209.562 292ZM206.542 287.06C206.542 285.32 207.762 283.8 209.562 283.8C210.082 283.8 210.662 284.08 211.042 284.5L206.542 287.06ZM219.397 287.62C220.417 287.9 221.237 288.28 221.237 289.08C221.237 289.68 220.577 290.18 219.517 290.18C218.677 290.18 217.797 289.68 217.477 288.66L215.597 288.98C216.137 290.9 217.817 292 219.517 292C220.697 292 223.157 291.34 223.157 288.9C223.157 287.42 222.077 286.42 219.857 285.8C218.737 285.48 218.177 285.2 218.177 284.68C218.177 284.18 218.537 283.68 219.877 283.66C220.517 283.66 221.317 283.88 221.317 284.56C221.317 284.72 221.317 285.02 221.177 285.42L223.037 285.06C223.117 284.62 223.117 284.48 223.117 284.32C223.117 282.32 221.077 281.9 219.877 281.9C218.337 281.9 216.217 282.38 216.217 284.7C216.217 286.5 217.897 287.22 219.397 287.62Z" fill="#FFEEF1"/>
<path d="M416.22 288.52L412.92 278.26L411.04 278.96L415.24 292.06L417.1 291.76L421.92 279L420.08 278.24L416.22 288.52ZM427.347 292C428.627 292 429.987 291.34 431.127 290.14L429.787 288.88C429.007 289.7 428.167 290.16 427.347 290.16C426.367 290.16 425.427 289.56 424.887 288.84L431.247 285.3C430.727 283.48 429.167 281.96 427.347 281.96C424.627 281.96 422.487 284.24 422.487 286.98C422.487 289.74 424.647 292 427.347 292ZM424.327 287.06C424.327 285.32 425.547 283.8 427.347 283.8C427.867 283.8 428.447 284.08 428.827 284.5L424.327 287.06ZM441.862 281.76L439.902 282.06V282.26C439.422 282.06 438.962 281.98 438.302 281.98C435.422 281.98 433.542 284.54 433.542 287.1C433.542 289.84 435.282 291.8 437.602 291.8C438.382 291.8 439.102 291.62 439.702 291.16C439.682 291.82 439.422 293.44 437.502 293.44C436.702 293.44 435.722 293.28 435.082 293.12L434.682 295C435.482 295.18 436.622 295.36 437.502 295.36C440.082 295.36 441.582 293.88 441.642 291.22L441.862 281.76ZM439.822 284.28V286.68C439.822 289.28 438.562 289.9 437.502 289.92C435.982 289.92 435.342 288.22 435.342 287.14C435.342 285.36 436.642 283.88 438.402 283.88C438.922 283.88 439.462 284.06 439.822 284.28ZM452.459 282.68C451.439 282.16 450.319 281.76 449.239 281.76C445.759 281.76 444.479 285.46 444.479 287.48C444.479 290.1 446.119 291.88 448.339 291.88C449.159 291.88 449.899 291.64 450.539 291.32V292.1L452.459 291.74V282.68ZM446.419 287.46C446.419 286.08 447.179 283.66 449.339 283.66C449.719 283.66 450.239 283.76 450.579 283.92L450.499 289.14C450.019 289.48 449.119 289.96 448.319 289.96C446.939 289.94 446.419 288.56 446.419 287.46ZM461.765 292.1L463.665 291.7L463.645 289.46C463.625 287.02 463.625 285.48 463.345 284.28C462.965 282.74 462.045 281.98 460.585 281.98C459.265 281.98 458.085 282.72 457.305 283.84V281.86L455.385 282.22V292.1L457.285 291.74L457.305 289.3C457.305 288.14 457.705 286.68 458.245 285.62C459.085 284.12 459.905 283.88 460.545 283.88C461.045 283.88 461.385 284.32 461.545 284.96C461.765 285.82 461.765 287.1 461.765 288.86V292.1ZM470.455 292C473.015 292 475.155 289.56 475.155 286.64C475.155 284.14 473.355 282 471.015 282C468.475 282 466.335 284.46 466.335 287.36C466.335 289.9 468.115 292 470.455 292ZM470.935 283.78C472.195 283.78 473.195 285.14 473.195 286.72C473.195 288.6 471.875 290.22 470.455 290.22C469.155 290.22 468.275 288.88 468.275 287.32C468.275 285.44 469.495 283.78 470.935 283.78ZM481.186 287.62C482.206 287.9 483.026 288.28 483.026 289.08C483.026 289.68 482.366 290.18 481.306 290.18C480.466 290.18 479.586 289.68 479.266 288.66L477.386 288.98C477.926 290.9 479.606 292 481.306 292C482.486 292 484.946 291.34 484.946 288.9C484.946 287.42 483.866 286.42 481.646 285.8C480.526 285.48 479.966 285.2 479.966 284.68C479.966 284.18 480.326 283.68 481.666 283.66C482.306 283.66 483.106 283.88 483.106 284.56C483.106 284.72 483.106 285.02 482.966 285.42L484.826 285.06C484.906 284.62 484.906 284.48 484.906 284.32C484.906 282.32 482.866 281.9 481.666 281.9C480.126 281.9 478.006 282.38 478.006 284.7C478.006 286.5 479.686 287.22 481.186 287.62Z" fill="#FFEEF1"/>
<path d="M275.01 385.535C273.435 385.15 271.86 384.94 270.495 384.94C268.535 384.94 266.295 385.29 264.335 385.92V389.63C266.015 388.93 268.325 388.37 270.145 388.3C269.095 391.065 266.785 392.675 263.46 392.675C258.84 392.675 256.425 388.3 256.425 384.065C256.425 381.16 258.7 375.49 264.09 375.49C267.695 375.49 269.935 377.66 270.775 380.95L274.1 380.285C272.91 375.455 269.445 372.13 264.09 372.13C257.475 372.13 253.03 378.5 253.03 384.065C253.03 390.785 257.335 396.07 263.46 396.07C270.635 396.07 272.91 391.03 273.575 388.65C274.1 388.755 274.555 388.93 275.01 389.105V385.535ZM283.534 392.535V385.36H295.329L296.344 381.93H283.534V375.63H296.939L297.534 372.165H280.069V396H296.659L297.884 392.535H283.534ZM302.284 396.07L317.019 394.985L316.844 391.52L305.749 392.36V372.095L302.284 372.725V396.07ZM331.288 372.06L327.858 372.69L322.818 386.235L320.018 386.76L320.613 390.12L321.418 390.015L319.633 394.74L322.678 396.28L325.303 389.175L332.758 387.6L335.698 396.42L338.638 394.425L331.288 372.06ZM326.703 385.395L329.538 377.87L331.708 384.31L326.703 385.395ZM346.088 396.175L349.588 395.58V375.63H357.078V372.165H339.123V375.63H346.088V396.175ZM368.902 396.07C374.432 396.07 379.227 390.19 379.227 383.225C379.227 377.17 375.412 372.13 370.267 372.13C364.772 372.13 359.977 378.01 359.977 384.975C359.977 390.96 363.687 396.07 368.902 396.07ZM370.057 375.455C373.452 375.455 375.867 379.375 375.867 383.365C375.867 388.44 372.507 392.745 368.902 392.745C365.682 392.745 363.337 389.21 363.337 384.975C363.337 379.69 366.452 375.455 370.057 375.455Z" fill="#FFEEF1"/>
<path d="M157.21 421.26L158.47 414.33H125.85V462.35L132.78 461.16V441.35H153.99L155.18 434.35H132.78V421.26H157.21ZM185.928 421.26L187.188 414.33H163.738L162.548 421.26H171.578V455.07H163.738L162.548 462H185.928L187.188 455.07H178.508V421.26H185.928ZM224 415.24V449.12L202.02 414.05L195.86 415.8L195.93 462.28L202.65 460.95V427.77L224.14 462.21L230.72 460.88V413.98L224 415.24ZM258.274 462.14C269.334 462.14 278.924 450.38 278.924 436.45C278.924 424.34 271.294 414.26 261.004 414.26C250.014 414.26 240.424 426.02 240.424 439.95C240.424 451.92 247.844 462.14 258.274 462.14ZM260.584 420.91C267.374 420.91 272.204 428.75 272.204 436.73C272.204 446.88 265.484 455.49 258.274 455.49C251.834 455.49 247.144 448.42 247.144 439.95C247.144 429.38 253.374 420.91 260.584 420.91ZM307.872 462.07C315.222 462.07 322.082 458.08 326.072 451.57L321.032 446.53C318.162 452.2 313.402 455.35 307.872 455.35C300.452 455.35 294.432 448.98 294.432 441.28C294.432 433.23 300.662 421.05 308.292 421.05C312.422 421.05 315.082 422.73 316.622 424.27V426.86H322.852V415.45H316.622V416.43C314.242 415.31 311.442 414.33 308.642 414.33C296.112 414.33 287.782 430.22 287.782 441.42C287.782 453.11 296.952 462.07 307.872 462.07ZM353.878 462.07C361.228 462.07 368.088 458.08 372.078 451.57L367.038 446.53C364.168 452.2 359.408 455.35 353.878 455.35C346.458 455.35 340.438 448.98 340.438 441.28C340.438 433.23 346.668 421.05 354.298 421.05C358.428 421.05 361.088 422.73 362.628 424.27V426.86H368.858V415.45H362.628V416.43C360.248 415.31 357.448 414.33 354.648 414.33C342.118 414.33 333.788 430.22 333.788 441.42C333.788 453.11 342.958 462.07 353.878 462.07ZM413.184 415.24V432.46L387.704 436.1V413.98L380.774 415.24V462.63L387.704 460.25V443.1L413.184 439.46V462.63L420.114 460.25V413.98L413.184 415.24ZM452.803 421.26L454.063 414.33H430.613L429.423 421.26H438.453V455.07H430.613L429.423 462H452.803L454.063 455.07H445.383V421.26H452.803ZM480.305 462.14C491.365 462.14 500.955 450.38 500.955 436.45C500.955 424.34 493.325 414.26 483.035 414.26C472.045 414.26 462.455 426.02 462.455 439.95C462.455 451.92 469.875 462.14 480.305 462.14ZM482.615 420.91C489.405 420.91 494.235 428.75 494.235 436.73C494.235 446.88 487.515 455.49 480.305 455.49C473.865 455.49 469.175 448.42 469.175 439.95C469.175 429.38 475.405 420.91 482.615 420.91Z" fill="#FFEEF1"/>
<path d="M379.974 70.9999C384.474 78.4999 389.474 96.5001 382.474 100.5C375.474 104.5 368.474 91.9999 363.474 83.9999C358.474 75.9999 347.974 61.9999 355.974 57.4999C363.974 52.9999 375.474 63.4999 379.974 70.9999Z" fill="#FFEEF1"/>
</svg>
